<svg width="56" height="40" viewBox="0 0 56 40" fill="none" xmlns="http://www.w3.org/2000/svg">
<path d="M36.18 39.8518C30.6294 39.8518 25.9277 37.9256 22.0748 34.0733C18.2225 30.2204 16.2963 25.5187 16.2963 19.9681C16.2963 14.4584 18.2225 9.7777 22.0748 5.92585C25.9277 2.074 30.6294 0.148071 36.18 0.148071C41.6896 0.148071 46.3704 2.074 50.2222 5.92585C54.0741 9.7777 56 14.4584 56 19.9681C56 25.5187 54.0741 30.2204 50.2222 34.0733C46.3704 37.9256 41.6896 39.8518 36.18 39.8518ZM36.1481 37.7777C41.0864 37.7777 45.284 36.0493 48.7407 32.5925C52.1975 29.1357 53.9259 24.9382 53.9259 19.9999C53.9259 15.0617 52.1975 10.8641 48.7407 7.40733C45.284 3.95054 41.0864 2.22215 36.1481 2.22215C31.2099 2.22215 27.0123 3.95054 23.5556 7.40733C20.0988 10.8641 18.3704 15.0617 18.3704 19.9999C18.3704 24.9382 20.0988 29.1357 23.5556 32.5925C27.0123 36.0493 31.2099 37.7777 36.1481 37.7777ZM43.6296 29.037L45.1111 27.5555L37.1852 19.6296V9.33326H35.1111V20.4444L43.6296 29.037ZM2.96296 9.18511V7.11103H13.3333V9.18511H2.96296ZM0 21.037V18.9629H13.3333V21.037H0ZM2.96296 32.8888V30.8147H13.3333V32.8888H2.96296Z" fill="#1C1B1F"/>
</svg>
