<svg width="43" height="43" viewBox="0 0 43 43" fill="none" xmlns="http://www.w3.org/2000/svg">
<path d="M0.625 42.248V10.498H10.625V0.498047H32.375V20.498H42.375V42.248H25.625V32.248H17.375V42.248H0.625ZM2.375 40.498H10.625V32.248H2.375V40.498ZM2.375 30.498H10.625V22.248H2.375V30.498ZM2.375 20.498H10.625V12.248H2.375V20.498ZM12.375 30.498H20.625V22.248H12.375V30.498ZM12.375 20.498H20.625V12.248H12.375V20.498ZM12.375 10.498H20.625V2.24805H12.375V10.498ZM22.375 30.498H30.625V22.248H22.375V30.498ZM22.375 20.498H30.625V12.248H22.375V20.498ZM22.375 10.498H30.625V2.24805H22.375V10.498ZM32.375 40.498H40.625V32.248H32.375V40.498ZM32.375 30.498H40.625V22.248H32.375V30.498Z" fill="#171717"/>
</svg>
