<svg width="26" height="33" viewBox="0 0 26 33" fill="none" xmlns="http://www.w3.org/2000/svg">
<path d="M25.1727 11.7188C24.9875 11.8628 21.7167 13.7092 21.7167 17.8148C21.7167 22.5636 25.8786 24.2436 26.0032 24.2852C25.984 24.3876 25.342 26.586 23.8088 28.826C22.4418 30.7972 21.014 32.7652 18.842 32.7652C16.67 32.7652 16.1111 31.5012 13.6037 31.5012C11.1602 31.5012 10.2914 32.8068 8.30467 32.8068C6.31794 32.8068 4.93169 30.9828 3.33784 28.7428C1.49165 26.1124 0 22.026 0 18.1476C0 11.9268 4.03735 8.62755 8.01081 8.62755C10.1221 8.62755 11.8821 10.0164 13.2076 10.0164C14.4693 10.0164 16.4369 8.54435 18.8388 8.54435C19.7491 8.54435 23.0199 8.62755 25.1727 11.7188ZM17.6985 5.91075C18.6919 4.72995 19.3946 3.09155 19.3946 1.45315C19.3946 1.22595 19.3754 0.995552 19.3339 0.809952C17.7177 0.870752 15.7948 1.88835 14.6354 3.23555C13.7251 4.27235 12.8754 5.91075 12.8754 7.57155C12.8754 7.82115 12.917 8.07075 12.9361 8.15075C13.0383 8.16995 13.2044 8.19235 13.3705 8.19235C14.8206 8.19235 16.6445 7.21955 17.6985 5.91075Z" fill="#0A0A0A"/>
</svg>
