<svg width="186" height="186" viewBox="0 0 186 186" fill="none" xmlns="http://www.w3.org/2000/svg">
<path d="M154.767 93C171.096 85.067 186 68.3217 186 48.9474C186 21.9145 164.086 0 137.053 0C117.678 0 100.933 14.9035 93 31.2332C85.0671 14.9035 68.3217 0 48.9474 0C21.9145 0 0 21.9145 0 48.9474C0 68.3217 14.9035 85.067 31.2332 93C14.9035 100.933 0 117.678 0 137.053C0 164.086 21.9145 186 48.9474 186C68.3217 186 85.0671 171.096 93 154.767C100.933 171.096 117.678 186 137.053 186C164.086 186 186 164.086 186 137.053C186 117.678 171.096 100.933 154.767 93Z" fill="url(#paint0_linear_2659_3452)"/>
<defs>
<linearGradient id="paint0_linear_2659_3452" x1="93" y1="0" x2="93" y2="186" gradientUnits="userSpaceOnUse">
<stop stop-color="#173B35"/>
<stop offset="1" stop-color="#0D231F"/>
</linearGradient>
</defs>
</svg>
