<svg width="20" height="20" viewBox="0 0 20 20" fill="none" xmlns="http://www.w3.org/2000/svg">
<path d="M16.6665 5.41585H14.8498C14.9415 5.15752 14.9998 4.87419 14.9998 4.58252C14.9998 3.19919 13.8832 2.08252 12.4998 2.08252C11.6248 2.08252 10.8665 2.53252 10.4165 3.20752L9.99984 3.76585L9.58317 3.19919C9.13317 2.53252 8.37484 2.08252 7.49984 2.08252C6.1165 2.08252 4.99984 3.19919 4.99984 4.58252C4.99984 4.87419 5.05817 5.15752 5.14984 5.41585H3.33317C2.40817 5.41585 1.67484 6.15752 1.67484 7.08252L1.6665 16.2492C1.6665 17.1742 2.40817 17.9159 3.33317 17.9159H16.6665C17.5915 17.9159 18.3332 17.1742 18.3332 16.2492V7.08252C18.3332 6.15752 17.5915 5.41585 16.6665 5.41585ZM12.4998 3.74919C12.9582 3.74919 13.3332 4.12419 13.3332 4.58252C13.3332 5.04085 12.9582 5.41585 12.4998 5.41585C12.0415 5.41585 11.6665 5.04085 11.6665 4.58252C11.6665 4.12419 12.0415 3.74919 12.4998 3.74919ZM7.49984 3.74919C7.95817 3.74919 8.33317 4.12419 8.33317 4.58252C8.33317 5.04085 7.95817 5.41585 7.49984 5.41585C7.0415 5.41585 6.6665 5.04085 6.6665 4.58252C6.6665 4.12419 7.0415 3.74919 7.49984 3.74919ZM16.6665 16.2492H3.33317V14.5825H16.6665V16.2492ZM16.6665 12.0825H3.33317V7.08252H7.5665L5.83317 9.44085L7.18317 10.4159L9.99984 6.58252L12.8165 10.4159L14.1665 9.44085L12.4332 7.08252H16.6665V12.0825Z" fill="#171717"/>
</svg>
