<svg width="42" height="40" viewBox="0 0 42 40" fill="none" xmlns="http://www.w3.org/2000/svg">
<path d="M0 39.7931L8.2069 16.8621L22.931 31.5862L0 39.7931ZM2.77586 37.0173L19.7931 30.9828L8.81034 20L2.77586 37.0173ZM21.7241 23.1379L20.5172 21.931L33.3103 9.13794C34.3966 8.05174 35.7241 7.50863 37.2931 7.50863C38.8621 7.50863 40.1897 8.05174 41.2759 9.13794L42 9.86208L40.9138 11.069L40.1897 10.3448C39.3851 9.54024 38.4397 9.13794 37.3535 9.13794C36.2672 9.13794 35.3218 9.54024 34.5172 10.3448L21.7241 23.1379ZM14.2414 15.6552L13.0345 14.4483L14.4828 13C15.4483 12.0345 15.931 10.8678 15.931 9.50001C15.931 8.1322 15.4483 6.96553 14.4828 6.00001L13.0345 4.55174L14.2414 3.34484L15.6897 4.79312C16.977 6.08047 17.6207 7.64944 17.6207 9.50001C17.6207 11.3506 16.977 12.9196 15.6897 14.2069L14.2414 15.6552ZM17.9828 19.3966L16.7759 18.1897L24.7414 10.2242C25.546 9.41955 25.9483 8.47415 25.9483 7.38794C25.9483 6.30174 25.546 5.35633 24.7414 4.55174L21.6034 1.41381L22.8103 0.206909L25.9483 3.34484C27.0747 4.47128 27.6379 5.81898 27.6379 7.38794C27.6379 8.95691 27.0747 10.3046 25.9483 11.431L17.9828 19.3966ZM25.4655 26.8793L24.2586 25.6724L25.5862 24.3448C26.9138 23.0173 28.523 22.3535 30.4138 22.3535C32.3046 22.3535 33.9138 23.0173 35.2414 24.3448L36.569 25.6724L35.3621 26.8793L34.0345 25.5517C33.0287 24.546 31.8218 24.0431 30.4138 24.0431C29.0057 24.0431 27.7989 24.546 26.7931 25.5517L25.4655 26.8793Z" fill="#1C1B1F"/>
</svg>
