<svg width="224" height="224" viewBox="0 0 224 224" fill="none" xmlns="http://www.w3.org/2000/svg">
<circle cx="112" cy="112" r="102" stroke="#FEFEFE" stroke-width="20"/>
<path d="M133.827 30.9766L123.143 24.5698C114.437 19.3492 103.563 19.3492 94.8571 24.5698L84.1732 30.9766C82.8106 31.7937 81.2803 32.291 79.6976 32.4308L67.2883 33.5275C57.1765 34.4211 48.3793 40.8126 44.4047 50.1534L39.527 61.6165C38.9049 63.0785 37.9591 64.3803 36.7609 65.4237L27.3662 73.6049C19.7108 80.2714 16.3506 90.6131 18.6254 100.506L21.4171 112.647C21.7732 114.195 21.7732 115.805 21.4171 117.353L18.6254 129.494C16.3506 139.387 19.7108 149.729 27.3662 156.395L36.7609 164.576C37.9591 165.62 38.9049 166.922 39.527 168.384L44.4047 179.847C48.3793 189.187 57.1765 195.579 67.2883 196.473L79.6976 197.569C81.2803 197.709 82.8106 198.206 84.1732 199.023L94.8572 205.43C103.563 210.651 114.437 210.651 123.143 205.43L133.827 199.023C135.189 198.206 136.72 197.709 138.302 197.569L150.712 196.473C160.824 195.579 169.621 189.187 173.595 179.847L178.473 168.384C179.095 166.922 180.041 165.62 181.239 164.576L190.634 156.395C198.289 149.729 201.649 139.387 199.375 129.494L196.583 117.353C196.227 115.805 196.227 114.195 196.583 112.647L199.375 100.506C201.649 90.6131 198.289 80.2714 190.634 73.6049L181.239 65.4237C180.041 64.3803 179.095 63.0785 178.473 61.6165L173.595 50.1534C169.621 40.8126 160.824 34.4211 150.712 33.5275L138.302 32.4308C136.72 32.291 135.189 31.7937 133.827 30.9766Z" stroke="white" stroke-width="17"/>
</svg>
