<svg width="82" height="81" viewBox="0 0 82 81" fill="none" xmlns="http://www.w3.org/2000/svg">
<path d="M68.0289 40.2148C78.0123 45.2485 82.8546 53.0009 80.7739 64.0626C79.1013 72.9546 72.3123 79.1851 63.1128 80.0918C52.0597 81.1816 44.8424 75.6465 40.8438 65.3016C36.8052 75.6271 29.6201 81.1891 18.5432 80.0963C9.38671 79.193 2.9029 72.9536 0.844498 64.0467C-0.303399 59.0807 0.544294 54.3728 2.85938 49.9096C5.19276 45.4116 8.94407 42.4337 13.8626 40.2342C8.69728 38.071 4.91481 34.8682 2.60665 30.1479C0.305417 25.4425 -0.310323 20.5242 1.08486 15.4015C3.25652 7.4272 10.5277 1.18583 18.1124 0.363633C26.5399 -0.550588 36.5653 3.17842 40.8132 15.2115C45.2055 4.19311 53.0523 -1.36035 64.8518 0.74663C74.3346 2.43978 80.1201 9.25664 81.227 19.1559C81.9312 25.452 79.4134 35.1428 68.0289 40.2143V40.2148Z" fill="#8B231D"/>
</svg>
