<svg width="81" height="81" viewBox="0 0 81 81" fill="none" xmlns="http://www.w3.org/2000/svg">
<path d="M32.8055 4.94681C37.6454 2.04448 43.6906 2.04448 48.5305 4.94681C50.5145 6.13658 52.7427 6.86056 55.0471 7.06421C60.6687 7.561 65.5593 11.1143 67.7689 16.3071C68.6747 18.4359 70.0518 20.3313 71.7965 21.8505C76.0524 25.5567 77.9204 31.306 76.6558 36.8059C76.1373 39.0605 76.1373 41.4034 76.6558 43.658C77.9204 49.1579 76.0524 54.9072 71.7965 58.6133C70.0518 60.1326 68.6747 62.028 67.7689 64.1567C65.5593 69.3496 60.6687 72.9029 55.0471 73.3997C52.7427 73.6033 50.5145 74.3273 48.5305 75.5171C43.6906 78.4194 37.6454 78.4194 32.8055 75.5171C30.8214 74.3273 28.5932 73.6033 26.2888 73.3997C20.6673 72.9029 15.7766 69.3496 13.567 64.1567C12.6612 62.028 11.2841 60.1326 9.53947 58.6133C5.28358 54.9072 3.41551 49.1578 4.68018 43.658C5.19861 41.4034 5.19861 39.0605 4.68018 36.8059C3.41551 31.306 5.28358 25.5567 9.53947 21.8505C11.2841 20.3313 12.6612 18.4359 13.567 16.3071C15.7766 11.1143 20.6673 7.561 26.2888 7.06421C28.5932 6.86056 30.8214 6.13658 32.8055 4.94681Z" fill="#14332E"/>
</svg>
