<svg width="18" height="19" viewBox="0 0 18 19" fill="none" xmlns="http://www.w3.org/2000/svg">
<path d="M12.375 2.61874C11.07 2.61874 9.8175 3.22624 9 4.18624C8.1825 3.22624 6.93 2.61874 5.625 2.61874C3.315 2.61874 1.5 4.43374 1.5 6.74374C1.5 9.57874 4.05 11.8887 7.9125 15.3987L9 16.3812L10.0875 15.3912C13.95 11.8887 16.5 9.57874 16.5 6.74374C16.5 4.43374 14.685 2.61874 12.375 2.61874ZM9.075 14.2812L9 14.3562L8.925 14.2812C5.355 11.0487 3 8.91124 3 6.74374C3 5.24374 4.125 4.11874 5.625 4.11874C6.78 4.11874 7.905 4.86124 8.3025 5.88874H9.705C10.095 4.86124 11.22 4.11874 12.375 4.11874C13.875 4.11874 15 5.24374 15 6.74374C15 8.91124 12.645 11.0487 9.075 14.2812Z" fill="#6C6C6C"/>
</svg>
