<svg width="38" height="42" viewBox="0 0 38 42" fill="none" xmlns="http://www.w3.org/2000/svg">
<path d="M2.18391 41.0374V17.6695H0V9.04311H11.1925C10.683 8.64272 10.3281 8.1548 10.1279 7.57934C9.92768 7.00425 9.82759 6.40021 9.82759 5.76724C9.82759 4.43251 10.2948 3.29815 11.2291 2.36417C12.1631 1.42982 13.2975 0.962646 14.6322 0.962646C15.4693 0.962646 16.2337 1.17194 16.9253 1.59052C17.6169 2.0091 18.1992 2.54598 18.6724 3.20115C19.1456 2.54598 19.728 2.0091 20.4195 1.59052C21.1111 1.17194 21.8755 0.962646 22.7126 0.962646C24.0474 0.962646 25.1817 1.42982 26.1157 2.36417C27.0501 3.29815 27.5172 4.43251 27.5172 5.76724C27.5172 6.38602 27.4171 6.98659 27.217 7.56897C27.0168 8.15134 26.6619 8.64272 26.1523 9.04311H38V17.6695H35.8161V41.0374H2.18391ZM22.7126 2.49138C21.7845 2.49138 21.0065 2.80532 20.3786 3.43319C19.7507 4.06107 19.4368 4.83908 19.4368 5.76724C19.4368 6.69541 19.7507 7.47342 20.3786 8.1013C21.0065 8.72917 21.7845 9.04311 22.7126 9.04311C23.6408 9.04311 24.4188 8.72917 25.0467 8.1013C25.6746 7.47342 25.9885 6.69541 25.9885 5.76724C25.9885 4.83908 25.6746 4.06107 25.0467 3.43319C24.4188 2.80532 23.6408 2.49138 22.7126 2.49138ZM11.3563 5.76724C11.3563 6.69541 11.6703 7.47342 12.2981 8.1013C12.926 8.72917 13.704 9.04311 14.6322 9.04311C15.5603 9.04311 16.3384 8.72917 16.9662 8.1013C17.5941 7.47342 17.908 6.69541 17.908 5.76724C17.908 4.83908 17.5941 4.06107 16.9662 3.43319C16.3384 2.80532 15.5603 2.49138 14.6322 2.49138C13.704 2.49138 12.926 2.80532 12.2981 3.43319C11.6703 4.06107 11.3563 4.83908 11.3563 5.76724ZM1.52874 10.5718V16.1408H18.2356V10.5718H1.52874ZM18.2356 39.5086V17.6695H3.71264V39.5086H18.2356ZM19.7644 39.5086H34.2874V17.6695H19.7644V39.5086ZM36.4713 16.1408V10.5718H19.7644V16.1408H36.4713Z" fill="#1C1B1F"/>
</svg>
