<svg width="33" height="33" viewBox="0 0 33 33" fill="none" xmlns="http://www.w3.org/2000/svg">
<path d="M29.5714 14.1944H28.4974V14.1391H16.4974V19.4724H24.0327C22.9334 22.5771 19.9794 24.8057 16.4974 24.8057C12.0794 24.8057 8.4974 21.2237 8.4974 16.8057C8.4974 12.3877 12.0794 8.80575 16.4974 8.80575C18.5367 8.80575 20.3921 9.57508 21.8047 10.8317L25.5761 7.06041C23.1947 4.84108 20.0094 3.47241 16.4974 3.47241C9.13406 3.47241 3.16406 9.44241 3.16406 16.8057C3.16406 24.1691 9.13406 30.1391 16.4974 30.1391C23.8607 30.1391 29.8307 24.1691 29.8307 16.8057C29.8307 15.9117 29.7387 15.0391 29.5714 14.1944Z" fill="#FFC107"/>
<path d="M4.70312 10.5997L9.08379 13.8124C10.2691 10.8777 13.1398 8.80575 16.4991 8.80575C18.5385 8.80575 20.3938 9.57508 21.8065 10.8317L25.5778 7.06041C23.1965 4.84108 20.0111 3.47241 16.4991 3.47241C11.3778 3.47241 6.93646 6.36375 4.70312 10.5997Z" fill="#FF3D00"/>
<path d="M16.4989 30.1341C19.9429 30.1341 23.0722 28.8161 25.4382 26.6728L21.3116 23.1808C19.9729 24.1948 18.3089 24.8008 16.4989 24.8008C13.0309 24.8008 10.0862 22.5895 8.97691 19.5035L4.62891 22.8535C6.83557 27.1715 11.3169 30.1341 16.4989 30.1341Z" fill="#4CAF50"/>
<path d="M29.5701 14.1918H28.4961V14.1365H16.4961V19.4698H24.0314C23.5034 20.9611 22.5441 22.2471 21.3068 23.1838L21.3088 23.1825L25.4354 26.6745C25.1434 26.9398 29.8294 23.4698 29.8294 16.8031C29.8294 15.9091 29.7374 15.0365 29.5701 14.1918Z" fill="#1976D2"/>
</svg>
