<svg width="49" height="45" viewBox="0 0 49 45" fill="none" xmlns="http://www.w3.org/2000/svg">
<path d="M23.625 42.3086C24 42.3086 24.3854 42.2253 24.7813 42.0586C25.1771 41.8919 25.5 41.6836 25.75 41.4336L44.9375 22.2461C45.6042 21.5794 46.125 20.9128 46.5 20.2461C46.875 19.5794 47.0625 18.8294 47.0625 17.9961C47.0625 17.1628 46.875 16.3503 46.5 15.5586C46.125 14.7669 45.6042 14.0378 44.9375 13.3711L35.9375 4.37109C35.2708 3.70443 34.6042 3.21484 33.9375 2.90234C33.2708 2.58984 32.5208 2.43359 31.6875 2.43359C30.8542 2.43359 30.0938 2.58984 29.4063 2.90234C28.7188 3.21484 28.0625 3.70443 27.4375 4.37109L24.8125 6.99609L29.4375 11.6211C29.8958 12.0794 30.2396 12.6003 30.4688 13.1836C30.6979 13.7669 30.8125 14.3503 30.8125 14.9336C30.8125 16.1003 30.4375 17.0586 29.6875 17.8086C28.9375 18.5586 27.9792 18.9336 26.8125 18.9336C26.2292 18.9336 25.6563 18.8503 25.0938 18.6836C24.5313 18.5169 24.0208 18.2044 23.5625 17.7461L18.75 12.9336L8 23.6836C7.70833 23.9753 7.48958 24.3086 7.34375 24.6836C7.19792 25.0586 7.125 25.4336 7.125 25.8086C7.125 26.4753 7.33333 27.0169 7.75 27.4336C8.16667 27.8503 8.70833 28.0586 9.375 28.0586C9.75 28.0586 10.1354 27.9753 10.5312 27.8086C10.9271 27.6419 11.25 27.4336 11.5 27.1836L19.25 19.4336L20.5 20.6836L12.75 28.4336C12.4583 28.7253 12.2396 29.0586 12.0938 29.4336C11.9479 29.8086 11.875 30.1836 11.875 30.5586C11.875 31.1836 12.0938 31.7148 12.5313 32.1523C12.9688 32.5898 13.5 32.8086 14.125 32.8086C14.5 32.8086 14.8854 32.7253 15.2813 32.5586C15.6771 32.3919 16 32.1836 16.25 31.9336L24.75 23.4336L26 24.6836L17.5 33.1836C17.25 33.4336 17.0417 33.7565 16.875 34.1523C16.7083 34.5482 16.625 34.9336 16.625 35.3086C16.625 35.9336 16.8438 36.4648 17.2813 36.9023C17.7188 37.3398 18.25 37.5586 18.875 37.5586C19.25 37.5586 19.625 37.4857 20 37.3398C20.375 37.194 20.7083 36.9753 21 36.6836L29.5 28.1836L30.75 29.4336L22.25 37.9336C21.9583 38.2253 21.7396 38.5794 21.5938 38.9961C21.4479 39.4128 21.375 39.7878 21.375 40.1211C21.375 40.7878 21.6042 41.319 22.0625 41.7148C22.5208 42.1107 23.0417 42.3086 23.625 42.3086ZM23.625 44.0586C22.4167 44.0586 21.3958 43.6003 20.5625 42.6836C19.7292 41.7669 19.4167 40.6419 19.625 39.3086C18.2083 39.3919 17.0313 39.0169 16.0938 38.1836C15.1563 37.3503 14.75 36.1419 14.875 34.5586C13.2917 34.6419 12.0625 34.2461 11.1875 33.3711C10.3125 32.4961 9.95833 31.3086 10.125 29.8086C8.79167 29.8919 7.66667 29.5898 6.75 28.9023C5.83333 28.2148 5.375 27.1836 5.375 25.8086C5.375 25.2253 5.48958 24.6315 5.71875 24.0273C5.94792 23.4232 6.29167 22.8919 6.75 22.4336L18.75 10.4336L24.6875 16.3711C24.9375 16.6211 25.2396 16.8294 25.5938 16.9961C25.9479 17.1628 26.3542 17.2461 26.8125 17.2461C27.3958 17.2461 27.9167 17.0378 28.375 16.6211C28.8333 16.2044 29.0625 15.6628 29.0625 14.9961C29.0625 14.5378 28.9792 14.1315 28.8125 13.7773C28.6458 13.4232 28.4375 13.1211 28.1875 12.8711L19.6875 4.37109C19.0208 3.70443 18.3438 3.21484 17.6563 2.90234C16.9688 2.58984 16.2083 2.43359 15.375 2.43359C14.5417 2.43359 13.8021 2.58984 13.1563 2.90234C12.5104 3.21484 11.8542 3.70443 11.1875 4.37109L3.9375 11.6211C3.35417 12.2044 2.88542 12.9023 2.53125 13.7148C2.17708 14.5273 2 15.3711 2 16.2461C2 16.8294 2.0625 17.3815 2.1875 17.9023C2.3125 18.4232 2.5 18.9128 2.75 19.3711L1.375 20.7461C1.04167 20.1628 0.770833 19.4753 0.5625 18.6836C0.354167 17.8919 0.25 17.0794 0.25 16.2461C0.25 15.1211 0.458333 14.0482 0.875 13.0273C1.29167 12.0065 1.89583 11.1003 2.6875 10.3086L9.875 3.12109C10.7083 2.28776 11.5729 1.67318 12.4688 1.27734C13.3646 0.88151 14.3542 0.683594 15.4375 0.683594C16.5208 0.683594 17.5 0.88151 18.375 1.27734C19.25 1.67318 20.1042 2.28776 20.9375 3.12109L23.5625 5.74609L26.1875 3.12109C27.0208 2.28776 27.875 1.67318 28.75 1.27734C29.625 0.88151 30.6042 0.683594 31.6875 0.683594C32.7708 0.683594 33.7604 0.88151 34.6562 1.27734C35.5521 1.67318 36.4167 2.28776 37.25 3.12109L46.1875 12.0586C47.0208 12.8919 47.6667 13.819 48.125 14.8398C48.5833 15.8607 48.8125 16.9128 48.8125 17.9961C48.8125 19.0794 48.5833 20.0586 48.125 20.9336C47.6667 21.8086 47.0208 22.6628 46.1875 23.4961L27 42.6836C26.5 43.1836 25.9688 43.5378 25.4063 43.7461C24.8438 43.9544 24.25 44.0586 23.625 44.0586Z" fill="#171717"/>
</svg>
