<svg width="20" height="20" viewBox="0 0 20 20" fill="none" xmlns="http://www.w3.org/2000/svg">
<path d="M9.16797 15H10.8346V13.3333H9.16797V15ZM10.0013 1.66667C5.4013 1.66667 1.66797 5.4 1.66797 10C1.66797 14.6 5.4013 18.3333 10.0013 18.3333C14.6013 18.3333 18.3346 14.6 18.3346 10C18.3346 5.4 14.6013 1.66667 10.0013 1.66667ZM10.0013 16.6667C6.3263 16.6667 3.33464 13.675 3.33464 10C3.33464 6.325 6.3263 3.33333 10.0013 3.33333C13.6763 3.33333 16.668 6.325 16.668 10C16.668 13.675 13.6763 16.6667 10.0013 16.6667ZM10.0013 5C8.15964 5 6.66797 6.49167 6.66797 8.33333H8.33464C8.33464 7.41667 9.08464 6.66667 10.0013 6.66667C10.918 6.66667 11.668 7.41667 11.668 8.33333C11.668 10 9.16797 9.79167 9.16797 12.5H10.8346C10.8346 10.625 13.3346 10.4167 13.3346 8.33333C13.3346 6.49167 11.843 5 10.0013 5Z" fill="#9D9D9D"/>
</svg>
