<svg width="32" height="32" viewBox="0 0 32 32" fill="none" xmlns="http://www.w3.org/2000/svg">
<path d="M23.3332 8.66602H23.3465M9.33317 2.66602H22.6665C26.3484 2.66602 29.3332 5.65078 29.3332 9.33268V22.666C29.3332 26.3479 26.3484 29.3327 22.6665 29.3327H9.33317C5.65127 29.3327 2.6665 26.3479 2.6665 22.666V9.33268C2.6665 5.65078 5.65127 2.66602 9.33317 2.66602ZM21.3332 15.1593C21.4977 16.269 21.3082 17.4023 20.7915 18.398C20.2749 19.3938 19.4574 20.2012 18.4553 20.7056C17.4533 21.2099 16.3178 21.3855 15.2102 21.2073C14.1027 21.029 13.0795 20.5061 12.2863 19.7129C11.4931 18.9197 10.9701 17.8965 10.7919 16.789C10.6137 15.6814 10.7893 14.5459 11.2936 13.5438C11.798 12.5418 12.6054 11.7243 13.6012 11.2077C14.5969 10.691 15.7302 10.5015 16.8398 10.666C17.9717 10.8339 19.0196 11.3613 19.8288 12.1704C20.6379 12.9795 21.1653 14.0275 21.3332 15.1593Z" stroke="white" stroke-width="1.33333" stroke-linecap="round" stroke-linejoin="round"/>
</svg>
