<svg width="565" height="500" viewBox="0 0 565 500" fill="none" xmlns="http://www.w3.org/2000/svg">
<g style="mix-blend-mode:multiply">
<path fill-rule="evenodd" clip-rule="evenodd" d="M565 98.8421C565 162.903 515.722 218.27 461.729 244.5C515.722 270.73 565 326.098 565 390.158C565 432.555 548.697 471.145 522.018 500H293.159C278.486 484.582 266.339 466.923 257.5 448.729C248.661 466.923 236.514 484.582 221.841 500H-7.01847C-33.6972 471.145 -50 432.555 -50 390.158C-50 326.098 -0.72224 270.73 53.2712 244.5C-0.72224 218.27 -50 162.903 -50 98.8421C-50 61.6241 -37.4371 27.3403 -16.3205 0H231.577C241.939 12.5888 250.699 26.2714 257.5 40.271C264.301 26.2714 273.061 12.5888 283.423 0H531.32C552.437 27.3403 565 61.6241 565 98.8421Z" fill="url(#paint0_linear_2659_3470)"/>
<path fill-rule="evenodd" clip-rule="evenodd" d="M565 98.8421C565 162.903 515.722 218.27 461.729 244.5C515.722 270.73 565 326.098 565 390.158C565 432.555 548.697 471.145 522.018 500H293.159C278.486 484.582 266.339 466.923 257.5 448.729C248.661 466.923 236.514 484.582 221.841 500H-7.01847C-33.6972 471.145 -50 432.555 -50 390.158C-50 326.098 -0.72224 270.73 53.2712 244.5C-0.72224 218.27 -50 162.903 -50 98.8421C-50 61.6241 -37.4371 27.3403 -16.3205 0H231.577C241.939 12.5888 250.699 26.2714 257.5 40.271C264.301 26.2714 273.061 12.5888 283.423 0H531.32C552.437 27.3403 565 61.6241 565 98.8421Z" fill="black" fill-opacity="0.2"/>
</g>
<defs>
<linearGradient id="paint0_linear_2659_3470" x1="257.5" y1="0" x2="257.5" y2="500" gradientUnits="userSpaceOnUse">
<stop stop-color="#7B1C18"/>
<stop offset="1" stop-color="#47100E"/>
</linearGradient>
</defs>
</svg>
