<svg width="32" height="32" viewBox="0 0 32 32" fill="none" xmlns="http://www.w3.org/2000/svg">
<path d="M21.3332 10.666C23.4549 10.666 25.4897 11.5089 26.99 13.0092C28.4903 14.5095 29.3332 16.5443 29.3332 18.666V27.9993H23.9998V18.666C23.9998 17.9588 23.7189 17.2805 23.2188 16.7804C22.7187 16.2803 22.0404 15.9993 21.3332 15.9993C20.6259 15.9993 19.9477 16.2803 19.4476 16.7804C18.9475 17.2805 18.6665 17.9588 18.6665 18.666V27.9993H13.3332V18.666C13.3332 16.5443 14.176 14.5095 15.6763 13.0092C17.1766 11.5089 19.2114 10.666 21.3332 10.666Z" stroke="white" stroke-width="1.33333" stroke-linecap="round" stroke-linejoin="round"/>
<path d="M7.99984 11.9993H2.6665V27.9993H7.99984V11.9993Z" stroke="white" stroke-width="1.33333" stroke-linecap="round" stroke-linejoin="round"/>
<path d="M5.33317 7.99935C6.80593 7.99935 7.99984 6.80544 7.99984 5.33268C7.99984 3.85992 6.80593 2.66602 5.33317 2.66602C3.86041 2.66602 2.6665 3.85992 2.6665 5.33268C2.6665 6.80544 3.86041 7.99935 5.33317 7.99935Z" stroke="white" stroke-width="1.33333" stroke-linecap="round" stroke-linejoin="round"/>
</svg>
