<svg width="30" height="30" viewBox="0 0 30 30" fill="none" xmlns="http://www.w3.org/2000/svg">
<path d="M15 2.49902C10.1625 2.49902 6.25 6.41152 6.25 11.249C6.25 17.8114 15 27.499 15 27.499C15 27.499 23.7501 17.8114 23.7501 11.249C23.7501 6.41152 19.8375 2.49902 15 2.49902ZM8.75001 11.249C8.75001 7.79902 11.55 4.99901 15 4.99901C18.45 4.99901 21.25 7.79902 21.25 11.249C21.25 14.849 17.65 20.2365 15 23.599C12.4 20.2615 8.75001 14.8115 8.75001 11.249Z" fill="#171717"/>
<path d="M15 14.374C16.7259 14.374 18.1251 12.9749 18.1251 11.249C18.1251 9.52313 16.7259 8.12402 15 8.12402C13.2741 8.12402 11.875 9.52313 11.875 11.249C11.875 12.9749 13.2741 14.374 15 14.374Z" fill="#171717"/>
</svg>
