<svg width="54" height="44" viewBox="0 0 54 44" fill="none" xmlns="http://www.w3.org/2000/svg">
<path d="M16.028 1.1114C16.4554 1.06251 16.8456 1.03233 17.1923 1.02119V9.90305H18.7437V1.02119C19.0903 1.03233 19.4806 1.06251 19.9081 1.11132C20.4472 1.17315 20.9619 1.29387 21.4379 1.47047L21.8307 1.61609V0.0217285H14.1055V1.61617L14.4982 1.47039C14.974 1.29395 15.4886 1.17315 16.028 1.1114Z" fill="#171717"/>
<path d="M24.689 5.73813H29.36C29.5216 7.23065 29.5107 8.63758 29.2143 9.90305L30.9114 9.90297V0.0216475H29.2143C29.4683 1.53133 29.5383 2.9804 29.36 4.34763H24.689C24.5615 2.94908 24.6267 1.50302 24.8347 0.0216475H23.1377V9.90297L24.8347 9.90305C24.5147 8.51588 24.5207 7.12733 24.689 5.73813Z" fill="#171717"/>
<path d="M39.5426 8.21115L39.1818 8.29933C38.7931 8.39451 38.4014 8.47895 38.0177 8.55013C37.6324 8.62155 37.2288 8.68387 36.8181 8.7352H36.818C36.4075 8.78653 35.9658 8.8268 35.5049 8.85454C35.1299 8.87723 34.7261 8.8935 34.3009 8.90294V5.73821H38.1875V4.34771H34.3009V1.02175C34.6817 1.02956 35.045 1.03981 35.3845 1.0525C35.8115 1.06861 36.2301 1.09472 36.6287 1.13027C37.028 1.1659 37.4206 1.2139 37.7954 1.27312C38.1695 1.33226 38.5545 1.41003 38.9396 1.50432L39.3004 1.59274V0.0217285H32.7495V9.90305H39.5426V8.21115Z" fill="#171717"/>
<path d="M9.36748 16.8937C9.63752 17.6425 9.77449 18.5972 9.77449 19.7315C9.77449 20.863 9.62946 21.8151 9.34348 22.561C9.06335 23.2916 8.67497 23.881 8.1889 24.3129C7.70185 24.7461 7.11215 25.057 6.43624 25.2368C5.44969 25.4994 4.30316 25.578 3.04772 25.4762C2.8085 25.4571 2.56205 25.4335 2.31121 25.4057V14.0116C3.0116 13.9182 3.66491 13.8709 4.25745 13.8709C5.10157 13.8709 5.87704 13.9714 6.56239 14.1695C7.21935 14.3596 7.79083 14.6807 8.2608 15.1234C8.73134 15.5671 9.10362 16.1627 9.36748 16.8937ZM10.3022 25.176C11.6173 23.9122 12.2841 22.0561 12.2841 19.6593C12.2841 17.3098 11.6168 15.4835 10.3006 14.2313C8.9904 12.985 7.00576 12.3532 4.40174 12.3532H0V27.0738H4.40174C7.00674 27.0738 8.99186 26.4352 10.3022 25.176Z" fill="#171717"/>
<path d="M21.4903 15.1652C21.6752 15.4674 21.769 15.8583 21.769 16.3272C21.769 16.8249 21.6579 17.2401 21.4386 17.5616C21.208 17.9001 20.9027 18.1763 20.5315 18.3827C20.1414 18.5996 19.6939 18.7566 19.201 18.8495C18.2853 19.0227 17.355 19.0367 16.4517 18.9138V13.9475C16.687 13.9095 16.9376 13.8789 17.2004 13.8559C17.6007 13.8211 17.9733 13.8035 18.3079 13.8035C18.7427 13.8035 19.1849 13.8517 19.622 13.9468C20.0382 14.0377 20.4125 14.1879 20.7341 14.3935C21.043 14.591 21.2975 14.8508 21.4903 15.1652ZM27.5943 28.0038L25.5736 26.1651C25.2321 25.8675 24.9815 25.6091 24.4157 25.02C23.8377 24.4182 23.4342 23.6858 22.9974 23.0304C22.5334 22.3347 22.0388 21.67 21.5272 21.0547C21.2285 20.6955 20.89 20.3819 20.515 20.116C20.682 20.0691 20.8492 20.0155 21.0161 19.9553C21.5719 19.7549 22.0838 19.479 22.5374 19.1355C22.9994 18.7858 23.3817 18.3663 23.6738 17.8883C23.9794 17.3881 24.1342 16.8204 24.1342 16.201C24.1342 15.3984 23.9656 14.728 23.633 14.2083C23.3054 13.6963 22.8718 13.2942 22.3441 13.0129C21.8386 12.744 21.2598 12.5615 20.6234 12.4704C20.0153 12.3838 19.394 12.3398 18.7769 12.3398H14.1406V27.0605H16.4517V20.3943C17.1008 20.4532 17.6427 20.6041 18.0666 20.8443C18.6023 21.1484 19.0663 21.5311 19.4454 21.9816C20.1254 22.7896 20.6188 23.729 21.2141 24.5969C21.8483 25.5217 22.6746 26.2556 23.4464 27.0605C23.7563 27.3837 24.0004 27.6192 24.3888 28.011L27.5943 28.0038Z" fill="#171717"/>
<path d="M27.173 21.1088C27.2501 20.8997 27.3363 20.6746 27.4326 20.4329C27.6185 19.9648 27.8195 19.4637 28.0356 18.9295C28.2541 18.3894 28.4684 17.8731 28.6728 17.3948C28.8825 16.9026 29.0747 16.4555 29.249 16.0529C29.2565 16.0357 29.2638 16.0188 29.2711 16.0018L31.4988 21.1088H27.173ZM25.9119 24.9027C26.0038 24.5664 26.3099 23.7212 26.5089 23.1021H32.3507L34.0749 27.0738H36.6107L30.1713 12.3532H29.206L24.4727 23.2383C25.0363 24.2678 25.9119 24.9027 25.9119 24.9027Z" fill="#171717"/>
<path d="M51.1062 12.3532H49.9858L45.7355 23.0224L41.4853 12.3532H40.329L37.4351 27.0738H39.9802L40.0017 26.662C40.0382 25.9558 40.0866 25.1757 40.1454 24.3432C40.2048 23.4974 40.2775 22.5867 40.3612 21.6363C40.4442 20.6911 40.5469 19.6908 40.6665 18.6633C40.7283 18.1312 40.7989 17.5911 40.8775 17.0477L44.8454 27.0738H45.7061L49.7025 16.9753L51.5783 27.0738H54.0002L51.1062 12.3532Z" fill="#171717"/>
<path d="M14.7103 39.6005C13.9594 40.3857 13.1647 40.9694 12.3488 41.3351C10.8128 42.0235 9.28841 42.0514 7.98726 41.47C7.37048 41.1949 6.82007 40.8009 6.35132 40.2986C5.88029 39.7945 5.50012 39.1766 5.22122 38.4619C4.94182 37.7469 4.80005 36.9445 4.80005 36.0768C4.80005 35.2221 4.93556 34.4442 5.20267 33.7649C5.47011 33.0853 5.82653 32.5032 6.26185 32.0348C6.69456 31.5691 7.19316 31.2087 7.74357 30.9633C8.81584 30.4854 9.9871 30.4545 11.1555 30.9887C11.7309 31.2518 12.3003 31.6854 12.8478 32.2774L13.1698 32.6256L15.0487 30.5529L14.6382 30.2717C13.956 29.8043 13.2496 29.4547 12.5385 29.2324C11.8258 29.0098 11.0966 28.8969 10.3713 28.8969C9.37016 28.8969 8.39321 29.0866 7.46735 29.4607C6.54173 29.8348 5.70932 30.3749 4.99315 31.0657C4.27591 31.7579 3.69744 32.5996 3.27383 33.5668C2.84876 34.5372 2.6333 35.6306 2.6333 36.8164C2.6333 37.9021 2.81387 38.8977 3.17005 39.7754C3.52639 40.6539 4.01547 41.4142 4.62371 42.0351C5.23228 42.657 5.94121 43.1415 6.73059 43.4751C7.52046 43.809 8.35694 43.9784 9.21708 43.9784C10.3759 43.9784 11.5351 43.6828 12.6626 43.1003C13.7903 42.5174 14.8012 41.5979 15.6676 40.3671L15.9101 40.0225L14.9764 39.3221L14.7103 39.6005Z" fill="#171717"/>
<path d="M19.477 42.4047C19.6246 42.3868 19.77 42.3678 19.9127 42.3476C20.4512 42.2715 21.022 42.2595 21.5912 42.201C22.2805 42.1299 22.786 42.0621 23.513 41.8834L24.0508 41.7512C24.4688 42.7522 24.8288 43.2478 25.8614 43.9783L17.1787 43.9784V29.2577H19.4898L19.4759 42.3815L19.477 42.4047Z" fill="#171717"/>
<path d="M42.2716 37.0485C43.0833 36.8593 43.8459 36.7637 44.5425 36.7637C45.6838 36.7637 46.613 37.0102 47.3044 37.4962C47.957 37.9553 48.2743 38.6238 48.2743 39.5399C48.2743 40.0952 48.1519 40.5516 47.9109 40.8961C47.6574 41.2581 47.3239 41.5494 46.9194 41.7619C46.4941 41.9855 46.0047 42.1435 45.4644 42.2316C44.366 42.4113 43.2583 42.4022 42.2716 42.2822V37.0485ZM46.8676 32.6319C46.8676 33.0834 46.7445 33.4492 46.4916 33.7502C46.2121 34.0822 45.8394 34.3676 45.3835 34.5982C44.9043 34.8407 44.3465 35.0417 43.7257 35.1954C43.2471 35.314 42.7598 35.4221 42.2716 35.5177V30.8891C43.9518 30.6302 45.2377 30.7565 46.1144 31.2513C46.6283 31.5418 46.8676 31.9805 46.8676 32.6319ZM49.0541 36.1496C48.5942 35.8147 48.0633 35.5588 47.4763 35.3892C47.4645 35.3858 47.4527 35.3824 47.441 35.3791C47.6686 35.2481 47.8825 35.0971 48.0803 34.9275C48.4164 34.6393 48.6907 34.292 48.8956 33.8955C49.1073 33.4861 49.2147 33.0125 49.2147 32.4876C49.2147 30.3444 47.5032 29.2577 44.1277 29.2577H39.9604V43.9784H44.2179C45.3024 43.9784 46.2557 43.8534 47.0515 43.6072C47.8588 43.3572 48.5327 43.0154 49.0543 42.5914C49.5863 42.1592 49.9855 41.6504 50.241 41.0788C50.4934 40.5137 50.6214 39.9172 50.6214 39.3054C50.6214 38.6105 50.4765 37.989 50.1908 37.4581C49.9086 36.9341 49.5263 36.4938 49.0541 36.1496Z" fill="#171717"/>
<path d="M38.4018 38.869C38.36 39.316 38.2666 39.7584 38.1106 40.1795C37.9876 40.512 37.8337 40.8303 37.6433 41.1299C37.4576 41.4219 37.2419 41.6945 37.0019 41.9437C36.7552 42.1997 36.483 42.4311 36.1921 42.6357C35.8884 42.8495 35.5645 43.0341 35.2274 43.1899C35.027 43.2826 34.822 43.3652 34.6135 43.4378C33.5823 43.7974 32.5278 43.9782 31.4672 43.9784C31.1276 43.9784 30.7875 43.9597 30.4472 43.9226C27.8012 43.634 26.0206 42.4526 25.1553 40.4113C24.7975 39.5679 24.732 38.611 24.9602 37.5676C25.3462 35.8023 26.4284 34.454 28.4689 33.196C28.5356 33.1549 28.6032 33.1148 28.6711 33.0749C28.8293 32.9817 28.9787 32.8936 29.1186 32.7837C29.1102 32.776 29.1006 32.7676 29.0899 32.7585C29.0899 32.7585 28.0649 31.7247 28.0648 31.7247C27.2603 30.9134 26.999 30.6496 26.2934 29.9379C25.9942 29.636 25.7311 29.3707 25.4156 29.0525L28.5908 29.0165L29.3266 29.7587C29.979 30.4381 30.5463 31.0116 31.2073 31.5905C31.5294 31.8729 31.5881 32.1624 31.5804 32.3554C31.5726 32.5523 31.4883 32.8434 31.1308 33.1122C30.8504 33.3231 30.5573 33.5143 30.2739 33.6992C29.9429 33.9155 29.63 34.1195 29.3368 34.3516C28.1661 35.2782 27.4901 36.3699 27.3279 37.5965C26.6613 42.638 34.3285 44.5272 35.9621 39.6146C36.1737 38.9782 36.0651 38.3174 35.9133 37.5818C35.7896 36.9823 35.6685 36.3824 35.5473 35.7824C35.4044 35.0735 35.2613 34.3645 35.1137 33.6565C35.0361 33.2832 34.9532 32.911 34.8702 32.5388C34.7383 31.9459 34.6019 31.3329 34.4884 30.7228C34.4692 30.6192 34.4442 30.5161 34.4194 30.413C34.3527 30.136 34.329 29.8256 34.2987 29.4835L34.3042 29.0848L36.5825 29.0768L36.6627 29.4148C36.717 29.6433 36.772 29.8717 36.8271 30.1001C36.9533 30.6229 37.0794 31.1458 37.1957 31.6705C37.2985 32.134 37.3927 32.5991 37.487 33.0643C37.5465 33.3579 37.606 33.6516 37.6677 33.9448C37.7586 34.3768 37.851 34.8084 37.9435 35.2402C38.0111 35.5556 38.0635 35.8804 38.1404 36.192C38.22 36.5149 38.2892 36.8401 38.3389 37.169C38.398 37.5594 38.4309 37.9543 38.4278 38.3494C38.4265 38.5227 38.418 38.6962 38.4018 38.869Z" fill="#BC8D38"/>
</svg>
