<svg width="99" height="80" viewBox="0 0 99 80" fill="none" xmlns="http://www.w3.org/2000/svg">
<path d="M29.1707 1.98325C29.9486 1.89427 30.6587 1.83935 31.2898 1.81906V17.9836H34.1133V1.81906C34.7441 1.83935 35.4543 1.89428 36.2324 1.98311C37.2135 2.09563 38.1503 2.31533 39.0165 2.63675L39.7314 2.90176V9.53674e-05H25.6719V2.90191L26.3867 2.6366C27.2525 2.31548 28.1891 2.09562 29.1707 1.98325Z" fill="white"/>
<path d="M44.9332 10.4037H53.4342C53.7283 13.12 53.7084 15.6806 53.1689 17.9836L56.2576 17.9835V-4.95911e-05H53.1689C53.6312 2.74749 53.7587 5.38474 53.4342 7.87305H44.9332C44.7011 5.32774 44.8197 2.69597 45.1984 -4.95911e-05H42.1099V17.9835L45.1984 17.9836C44.616 15.4591 44.6268 12.932 44.9332 10.4037Z" fill="white"/>
<path d="M71.9656 14.9045L71.3089 15.0649C70.6015 15.2382 69.8887 15.3918 69.1903 15.5214C68.4891 15.6514 67.7546 15.7648 67.0072 15.8582H67.007C66.2599 15.9516 65.456 16.0249 64.6172 16.0754C63.9348 16.1167 63.1998 16.1463 62.4259 16.1635V10.4038H69.4994V7.87319H62.4259V1.82009C63.119 1.8343 63.7803 1.85296 64.3981 1.87606C65.1753 1.90537 65.9371 1.95289 66.6624 2.01759C67.3892 2.08244 68.1036 2.16979 68.7858 2.27758C69.4667 2.38521 70.1673 2.52675 70.8683 2.69834L71.5249 2.85927V9.53674e-05H59.6025V17.9836H71.9656V14.9045Z" fill="white"/>
<path d="M17.0484 30.7062C17.5398 32.0691 17.7891 33.8066 17.7891 35.8709C17.7891 37.9303 17.5252 39.6631 17.0047 41.0206C16.4949 42.3502 15.788 43.4228 14.9034 44.2089C14.017 44.9974 12.9438 45.5631 11.7137 45.8904C9.91819 46.3682 7.83156 46.5114 5.5467 46.326C5.11135 46.2912 4.66281 46.2483 4.20629 46.1978V25.4609C5.48098 25.2909 6.66996 25.2049 7.74836 25.2049C9.28462 25.2049 10.6959 25.3878 11.9432 25.7484C13.1389 26.0944 14.179 26.6786 15.0343 27.4845C15.8906 28.292 16.5682 29.3758 17.0484 30.7062ZM18.7495 45.7797C21.1429 43.4796 22.3565 40.1016 22.3565 35.7396C22.3565 31.4635 21.142 28.1398 18.7466 25.8608C16.3621 23.5927 12.7502 22.4427 8.01097 22.4427H0V49.2336H8.01097C12.7519 49.2336 16.3648 48.0714 18.7495 45.7797Z" fill="white"/>
<path d="M39.1114 27.5605C39.4479 28.1105 39.6187 28.822 39.6187 29.6754C39.6187 30.581 39.4165 31.3367 39.0172 31.9219C38.5976 32.538 38.042 33.0406 37.3664 33.4162C36.6565 33.8109 35.842 34.0967 34.9451 34.2658C33.2784 34.581 31.5854 34.6064 29.9415 34.3829V25.3443C30.3696 25.2752 30.8257 25.2195 31.304 25.1777C32.0326 25.1144 32.7107 25.0822 33.3195 25.0822C34.1109 25.0822 34.9156 25.17 35.7111 25.3431C36.4688 25.5085 37.1498 25.7819 37.7352 26.1561C38.2974 26.5155 38.7606 26.9883 39.1114 27.5605ZM50.2203 50.9262L46.5428 47.5799C45.9214 47.0382 45.4653 46.568 44.4356 45.4958C43.3835 44.4005 42.6493 43.0677 41.8542 41.8749C41.0099 40.6087 40.1097 39.399 39.1786 38.2791C38.6349 37.6255 38.0189 37.0546 37.3365 36.5708C37.6404 36.4853 37.9446 36.3878 38.2484 36.2782C39.26 35.9136 40.1916 35.4115 41.0171 34.7863C41.8579 34.1498 42.5537 33.3863 43.0853 32.5165C43.6414 31.6061 43.9233 30.5729 43.9233 29.4456C43.9233 27.985 43.6164 26.7649 43.011 25.8191C42.4148 24.8873 41.6257 24.1554 40.6653 23.6435C39.7453 23.154 38.6919 22.8219 37.5337 22.6561C36.427 22.4984 35.2962 22.4185 34.1731 22.4185H25.7354V49.2094H29.9415V37.0773C31.1228 37.1844 32.109 37.4591 32.8805 37.8963C33.8554 38.4497 34.6999 39.1461 35.3897 39.966C36.6273 41.4366 37.5254 43.1462 38.6087 44.7257C39.763 46.4088 41.2669 47.7445 42.6714 49.2094C43.2354 49.7976 43.6796 50.2262 44.3866 50.9393L50.2203 50.9262Z" fill="white"/>
<path d="M49.454 38.3775C49.5944 37.997 49.7513 37.5874 49.9265 37.1474C50.2649 36.2955 50.6307 35.3835 51.024 34.4114C51.4216 33.4285 51.8117 32.4888 52.1835 31.6182C52.5653 30.7225 52.9151 29.9088 53.2323 29.176C53.246 29.1447 53.2591 29.1139 53.2725 29.0831L57.3267 38.3775H49.454ZM47.159 45.2822C47.3262 44.6702 47.8833 43.1321 48.2453 42.0053H58.8772L62.0151 49.2336H66.6303L54.9109 22.4427H53.154L44.5396 42.2531C45.5654 44.1268 47.159 45.2822 47.159 45.2822Z" fill="white"/>
<path d="M93.0107 22.4427H90.9717L83.2364 41.8603L75.5012 22.4427H73.3967L68.1299 49.2336H72.7619L72.801 48.4841C72.8675 47.1989 72.9555 45.7791 73.0626 44.2641C73.1708 42.7248 73.303 41.0673 73.4553 39.3375C73.6064 37.6174 73.7934 35.7968 74.011 33.927C74.1233 32.9584 74.2518 31.9755 74.395 30.9865L81.6163 49.2336H83.1828L90.4561 30.8547L93.8699 49.2336H98.2776L93.0107 22.4427Z" fill="white"/>
<path d="M26.772 72.0316C25.4054 73.4607 23.9592 74.523 22.4743 75.1885C19.6787 76.4413 16.9045 76.4922 14.5364 75.4341C13.4139 74.9334 12.4122 74.2162 11.5591 73.3022C10.7019 72.3847 10.01 71.2602 9.50237 69.9595C8.99388 68.6582 8.73587 67.1978 8.73587 65.6187C8.73587 64.0631 8.98248 62.6473 9.46862 61.4111C9.95534 60.1743 10.604 59.1148 11.3963 58.2623C12.1838 57.4149 13.0912 56.7589 14.0929 56.3123C16.0444 55.4425 18.1761 55.3863 20.3025 56.3585C21.3497 56.8373 22.3859 57.6266 23.3824 58.704L23.9683 59.3376L27.3879 55.5654L26.6409 55.0536C25.3994 54.2031 24.1137 53.5667 22.8195 53.1621C21.5224 52.757 20.1953 52.5515 18.8752 52.5515C17.0533 52.5515 15.2753 52.8968 13.5902 53.5777C11.9056 54.2586 10.3907 55.2415 9.08729 56.4987C7.78196 57.7585 6.72916 59.2903 5.95822 61.0506C5.18461 62.8167 4.79248 64.8067 4.79248 66.9647C4.79248 68.9406 5.12111 70.7526 5.76933 72.3499C6.41785 73.9487 7.30797 75.3324 8.41494 76.4625C9.5225 77.5943 10.8127 78.4761 12.2494 79.0832C13.6869 79.6909 15.2092 79.9991 16.7747 79.9991C18.8837 79.9991 20.9934 79.4613 23.0454 78.4011C25.0977 77.3403 26.9375 75.6669 28.5144 73.4268L28.9556 72.7997L27.2564 71.525L26.772 72.0316Z" fill="white"/>
<path d="M35.4474 77.1351C35.7161 77.1027 35.9806 77.068 36.2404 77.0312C37.2205 76.8927 38.2592 76.871 39.2952 76.7644C40.5497 76.6351 41.4697 76.5116 42.7927 76.1864L43.7716 75.9458C44.5323 77.7676 45.1875 78.6696 47.0668 79.999L31.2646 79.9991V53.2081H35.4708L35.4455 77.0929L35.4474 77.1351Z" fill="white"/>
<path d="M76.9322 67.3871C78.4096 67.0428 79.7973 66.8687 81.0652 66.8687C83.1424 66.8687 84.8335 67.3173 86.0917 68.2019C87.2794 69.0374 87.8569 70.2541 87.8569 71.9213C87.8569 72.9319 87.6342 73.7626 87.1955 74.3896C86.7342 75.0484 86.1273 75.5785 85.391 75.9653C84.6171 76.3722 83.7264 76.6597 82.743 76.8202C80.744 77.1471 78.728 77.1306 76.9322 76.9123V67.3871ZM85.2968 59.3492C85.2968 60.1709 85.0727 60.8365 84.6125 61.3843C84.1038 61.9887 83.4254 62.508 82.5959 62.9276C81.7237 63.3689 80.7085 63.7348 79.5787 64.0146C78.7075 64.2305 77.8208 64.4271 76.9322 64.6012V56.1773C79.9902 55.7061 82.3304 55.936 83.9259 56.8365C84.8612 57.3651 85.2968 58.1636 85.2968 59.3492ZM89.2762 65.7512C88.4391 65.1416 87.4729 64.6759 86.4045 64.3673C86.3831 64.361 86.3616 64.355 86.3403 64.3489C86.7545 64.1104 87.1438 63.8357 87.5038 63.5269C88.1155 63.0025 88.6148 62.3705 88.9877 61.6487C89.373 60.9037 89.5684 60.0418 89.5684 59.0864C89.5684 55.186 86.4535 53.2081 80.3103 53.2081H72.7261V79.9991H80.4744C82.4481 79.9991 84.1832 79.7717 85.6315 79.3237C87.1007 78.8686 88.3272 78.2465 89.2765 77.4749C90.2446 76.6884 90.9711 75.7623 91.4362 74.7221C91.8956 73.6936 92.1286 72.608 92.1286 71.4946C92.1286 70.2298 91.8648 69.0988 91.3449 68.1327C90.8312 67.1789 90.1355 66.3776 89.2762 65.7512Z" fill="white"/>
<path d="M69.8898 70.7003C69.8137 71.5139 69.6438 72.319 69.3599 73.0854C69.1359 73.6905 68.856 74.2698 68.5093 74.8151C68.1715 75.3465 67.7789 75.8426 67.3421 76.2961C66.8931 76.7621 66.3976 77.1832 65.8683 77.5556C65.3155 77.9446 64.7261 78.2806 64.1126 78.5642C63.7479 78.7329 63.3747 78.8831 62.9953 79.0153C61.1186 79.6699 59.1994 79.9988 57.2692 79.9991C56.651 79.9991 56.0321 79.9652 55.4127 79.8977C50.5972 79.3724 47.3566 77.2223 45.7819 73.5072C45.1307 71.9722 45.0114 70.2308 45.4268 68.3318C46.1293 65.1191 48.0987 62.6653 51.8123 60.3758C51.9337 60.3009 52.0569 60.228 52.1803 60.1553C52.4683 59.9858 52.7402 59.8255 52.9948 59.6253C52.9796 59.6114 52.9621 59.5961 52.9426 59.5796C52.9426 59.5796 51.0771 57.698 51.0769 57.698C49.6128 56.2214 49.1373 55.7413 47.8531 54.4462C47.3085 53.8967 46.8298 53.4139 46.2556 52.8348L52.0342 52.7692L53.3733 54.12C54.5607 55.3565 55.5932 56.4003 56.7961 57.4538C57.3824 57.9677 57.4892 58.4946 57.4752 58.846C57.461 59.2042 57.3075 59.734 56.6569 60.2233C56.1465 60.607 55.6132 60.9551 55.0974 61.2916C54.495 61.6851 53.9256 62.0565 53.392 62.4789C51.2612 64.1652 50.0309 66.152 49.7358 68.3845C48.5227 77.5597 62.4766 80.9981 65.4497 72.0572C65.8348 70.899 65.6372 69.6965 65.3608 68.3577C65.1357 67.2667 64.9153 66.1748 64.6948 65.0828C64.4346 63.7927 64.1742 62.5024 63.9057 61.2138C63.7643 60.5345 63.6135 59.857 63.4625 59.1797C63.2224 58.1007 62.9741 56.985 62.7676 55.8746C62.7327 55.6861 62.6872 55.4985 62.642 55.3108C62.5207 54.8067 62.4775 54.2418 62.4223 53.6191L62.4323 52.8935L66.5788 52.879L66.7248 53.494C66.8235 53.9099 66.9237 54.3256 67.024 54.7414C67.2537 55.6928 67.4831 56.6444 67.6948 57.5994C67.8819 58.443 68.0534 59.2894 68.2249 60.1361C68.3331 60.6704 68.4415 61.2049 68.5537 61.7384C68.7192 62.5247 68.8874 63.3103 69.0557 64.096C69.1787 64.6702 69.2742 65.2612 69.4141 65.8284C69.559 66.416 69.6848 67.0078 69.7754 67.6063C69.8829 68.317 69.9428 69.0356 69.9372 69.7547C69.9347 70.0701 69.9193 70.3858 69.8898 70.7003Z" fill="#BC8D38"/>
</svg>
