<svg width="30" height="30" viewBox="0 0 30 30" fill="none" xmlns="http://www.w3.org/2000/svg">
<path d="M8.91061 12.8212C7.83054 12.8212 6.90875 12.4395 6.14525 11.676C5.38175 10.9125 5 9.99069 5 8.91061C5 7.83054 5.38175 6.90875 6.14525 6.14525C6.90875 5.38175 7.83054 5 8.91061 5C9.99069 5 10.9125 5.38175 11.676 6.14525C12.4395 6.90875 12.8212 7.83054 12.8212 8.91061C12.8212 9.99069 12.4395 10.9125 11.676 11.676C10.9125 12.4395 9.99069 12.8212 8.91061 12.8212ZM8.90838 11.7784C9.70441 11.7784 10.3818 11.4998 10.9404 10.9426C11.4991 10.3854 11.7784 9.70887 11.7784 8.91285C11.7784 8.11682 11.4998 7.43948 10.9426 6.88082C10.3854 6.32216 9.70887 6.04283 8.91285 6.04283C8.11682 6.04283 7.43948 6.32142 6.88082 6.87858C6.32216 7.43575 6.04283 8.11236 6.04283 8.90838C6.04283 9.70441 6.32142 10.3818 6.87858 10.9404C7.43575 11.4991 8.11236 11.7784 8.90838 11.7784ZM21.0894 25C20.0093 25 19.0875 24.6182 18.324 23.8547C17.5605 23.0912 17.1788 22.1694 17.1788 21.0894C17.1788 20.0093 17.5605 19.0875 18.324 18.324C19.0875 17.5605 20.0093 17.1788 21.0894 17.1788C22.1694 17.1788 23.0912 17.5605 23.8547 18.324C24.6182 19.0875 25 20.0093 25 21.0894C25 22.1694 24.6182 23.0912 23.8547 23.8547C23.0912 24.6182 22.1694 25 21.0894 25ZM21.0872 23.9571C21.8832 23.9571 22.5605 23.6786 23.1192 23.1214C23.6778 22.5643 23.9571 21.8877 23.9571 21.0916C23.9571 20.2956 23.6786 19.6182 23.1214 19.0596C22.5643 18.5009 21.8877 18.2216 21.0916 18.2216C20.2956 18.2216 19.6182 18.5002 19.0596 19.0574C18.5009 19.6145 18.2216 20.2911 18.2216 21.0872C18.2216 21.8832 18.5002 22.5605 19.0574 23.1192C19.6145 23.6778 20.2911 23.9571 21.0872 23.9571ZM6.08008 24.6276L5.37244 23.92L23.92 5.37244L24.6276 6.08008L6.08008 24.6276Z" fill="#171717"/>
</svg>
