<svg width="40" height="40" viewBox="0 0 40 40" fill="none" xmlns="http://www.w3.org/2000/svg">
<path d="M7.82123 15.6425C5.66108 15.6425 3.8175 14.879 2.2905 13.352C0.763501 11.825 0 9.98138 0 7.82123C0 5.66108 0.763501 3.8175 2.2905 2.2905C3.8175 0.763501 5.66108 0 7.82123 0C9.98138 0 11.825 0.763501 13.352 2.2905C14.879 3.8175 15.6425 5.66108 15.6425 7.82123C15.6425 9.98138 14.879 11.825 13.352 13.352C11.825 14.879 9.98138 15.6425 7.82123 15.6425ZM7.81676 13.5568C9.40881 13.5568 10.7635 12.9996 11.8808 11.8853C12.9981 10.7709 13.5568 9.41775 13.5568 7.8257C13.5568 6.23364 12.9996 4.87896 11.8853 3.76164C10.7709 2.64432 9.41775 2.08566 7.8257 2.08566C6.23364 2.08566 4.87896 2.64283 3.76164 3.75717C2.64432 4.87151 2.08566 6.22471 2.08566 7.81676C2.08566 9.40881 2.64283 10.7635 3.75717 11.8808C4.87151 12.9981 6.22471 13.5568 7.81676 13.5568ZM32.1788 40C30.0186 40 28.175 39.2365 26.648 37.7095C25.121 36.1825 24.3575 34.3389 24.3575 32.1788C24.3575 30.0186 25.121 28.175 26.648 26.648C28.175 25.121 30.0186 24.3575 32.1788 24.3575C34.3389 24.3575 36.1825 25.121 37.7095 26.648C39.2365 28.175 40 30.0186 40 32.1788C40 34.3389 39.2365 36.1825 37.7095 37.7095C36.1825 39.2365 34.3389 40 32.1788 40ZM32.1743 37.9143C33.7664 37.9143 35.121 37.3572 36.2384 36.2428C37.3557 35.1285 37.9143 33.7753 37.9143 32.1832C37.9143 30.5912 37.3572 29.2365 36.2428 28.1192C35.1285 27.0019 33.7753 26.4432 32.1832 26.4432C30.5912 26.4432 29.2365 27.0004 28.1192 28.1147C27.0019 29.229 26.4432 30.5822 26.4432 32.1743C26.4432 33.7664 27.0004 35.121 28.1147 36.2384C29.229 37.3557 30.5822 37.9143 32.1743 37.9143ZM2.16015 39.2551L0.744879 37.8399L37.8399 0.744879L39.2551 2.16015L2.16015 39.2551Z" fill="#1C1B1F"/>
</svg>
