<svg width="18" height="18" viewBox="0 0 18 18" fill="none" xmlns="http://www.w3.org/2000/svg">
<path d="M9 4.49854C9.825 4.49854 10.5 5.17354 10.5 5.99854C10.5 6.82354 9.825 7.49854 9 7.49854C8.175 7.49854 7.5 6.82354 7.5 5.99854C7.5 5.17354 8.175 4.49854 9 4.49854ZM9 11.2485C11.025 11.2485 13.35 12.216 13.5 12.7485V13.4985H4.5V12.756C4.65 12.216 6.975 11.2485 9 11.2485ZM9 2.99854C7.3425 2.99854 6 4.34104 6 5.99854C6 7.65604 7.3425 8.99854 9 8.99854C10.6575 8.99854 12 7.65604 12 5.99854C12 4.34104 10.6575 2.99854 9 2.99854ZM9 9.74854C6.9975 9.74854 3 10.7535 3 12.7485V14.9985H15V12.7485C15 10.7535 11.0025 9.74854 9 9.74854Z" fill="#6C6C6C"/>
</svg>
