<svg width="18" height="19" viewBox="0 0 18 19" fill="none" xmlns="http://www.w3.org/2000/svg">
<path d="M9 4.925C9.87 4.925 10.575 5.63 10.575 6.5C10.575 7.37 9.87 8.075 9 8.075C8.13 8.075 7.425 7.37 7.425 6.5C7.425 5.63 8.13 4.925 9 4.925ZM9 11.675C11.2275 11.675 13.575 12.77 13.575 13.25V14.075H4.425V13.25C4.425 12.77 6.7725 11.675 9 11.675ZM9 3.5C7.3425 3.5 6 4.8425 6 6.5C6 8.1575 7.3425 9.5 9 9.5C10.6575 9.5 12 8.1575 12 6.5C12 4.8425 10.6575 3.5 9 3.5ZM9 10.25C6.9975 10.25 3 11.255 3 13.25V15.5H15V13.25C15 11.255 11.0025 10.25 9 10.25Z" fill="#6C6C6C"/>
</svg>
