<svg width="20" height="20" viewBox="0 0 20 20" fill="none" xmlns="http://www.w3.org/2000/svg">
<path d="M10.0002 10.0001C9.0835 10.0001 8.3335 9.25008 8.3335 8.33342C8.3335 7.41675 9.0835 6.66675 10.0002 6.66675C10.9168 6.66675 11.6668 7.41675 11.6668 8.33342C11.6668 9.25008 10.9168 10.0001 10.0002 10.0001ZM15.0002 8.50008C15.0002 5.47508 12.7918 3.33341 10.0002 3.33341C7.2085 3.33341 5.00016 5.47508 5.00016 8.50008C5.00016 10.4501 6.62516 13.0334 10.0002 16.1167C13.3752 13.0334 15.0002 10.4501 15.0002 8.50008ZM10.0002 1.66675C13.5002 1.66675 16.6668 4.35008 16.6668 8.50008C16.6668 11.2667 14.4418 14.5417 10.0002 18.3334C5.5585 14.5417 3.3335 11.2667 3.3335 8.50008C3.3335 4.35008 6.50016 1.66675 10.0002 1.66675Z" fill="white"/>
</svg>
