<svg width="129" height="150" viewBox="0 0 129 150" fill="none" xmlns="http://www.w3.org/2000/svg">
<path d="M38.2841 2.60237C39.3049 2.48562 40.2368 2.41355 41.065 2.38693V23.5977H44.7704V2.38693C45.5982 2.41355 46.5302 2.48562 47.5513 2.60218C48.8389 2.74983 50.0682 3.03811 51.2051 3.45987L52.1432 3.80762V0.0001297H33.6924V3.80781L34.6305 3.45968C35.7668 3.03831 36.9959 2.74982 38.2841 2.60237Z" fill="#18222F"/>
<path d="M58.9679 13.6514H70.124C70.51 17.2157 70.4838 20.5756 69.7759 23.5977L73.8293 23.5975V-6.10352e-05H69.7759C70.3826 3.60519 70.5499 7.06572 70.124 10.3308H58.9679C58.6633 6.99092 58.8189 3.53759 59.3159 -6.10352e-05H55.2627V23.5975L59.3159 23.5977C58.5516 20.285 58.5658 16.969 58.9679 13.6514Z" fill="#18222F"/>
<path d="M94.4423 19.5572L93.5805 19.7678C92.6521 19.9951 91.7167 20.1968 90.8002 20.3668C89.8799 20.5373 88.916 20.6861 87.9352 20.8087H87.935C86.9545 20.9313 85.8994 21.0275 84.7987 21.0937C83.9032 21.1479 82.9386 21.1868 81.923 21.2093V13.6516H91.2058V10.331H81.923V2.38828C82.8326 2.40693 83.7004 2.43141 84.5112 2.46172C85.5311 2.50018 86.5308 2.56254 87.4827 2.64743C88.4366 2.73252 89.3741 2.84715 90.2693 2.98858C91.1629 3.12981 92.0823 3.31553 93.0022 3.54069L93.864 3.75187V0.0001297H78.2178V23.5977H94.4423V19.5572Z" fill="#18222F"/>
<path d="M22.3732 40.2729C23.0182 42.0612 23.3453 44.3411 23.3453 47.0498C23.3453 49.7521 22.9989 52.0258 22.3159 53.8071C21.6469 55.5518 20.7192 56.9593 19.5583 57.9907C18.395 59.0253 16.9866 59.7677 15.3723 60.1972C13.016 60.8241 10.2776 61.0119 7.27915 60.7687C6.70781 60.7231 6.11918 60.6667 5.52007 60.6005V33.3901C7.19289 33.1671 8.75323 33.0542 10.1685 33.0542C12.1846 33.0542 14.0367 33.2942 15.6736 33.7674C17.2427 34.2214 18.6076 34.988 19.73 36.0454C20.8539 37.105 21.743 38.5272 22.3732 40.2729ZM24.6057 60.0519C27.7466 57.0337 29.3392 52.6012 29.3392 46.8775C29.3392 41.2666 27.7454 36.9052 24.6018 33.9149C21.4726 30.9386 16.7325 29.4298 10.5131 29.4298H0V64.584H10.5131C16.7348 64.584 21.4761 63.059 24.6057 60.0519Z" fill="#18222F"/>
<path d="M51.3244 36.1813C51.7659 36.903 51.9901 37.8367 51.9901 38.9564C51.9901 40.1448 51.7248 41.1364 51.2008 41.9043C50.6501 42.7127 49.921 43.3722 49.0344 43.8651C48.1027 44.383 47.0338 44.7579 45.8568 44.9798C43.6695 45.3934 41.4477 45.4268 39.2904 45.1334V33.2733C39.8522 33.1826 40.4507 33.1095 41.0784 33.0547C42.0346 32.9716 42.9245 32.9294 43.7235 32.9294C44.7621 32.9294 45.8181 33.0446 46.8621 33.2717C47.8563 33.4887 48.7502 33.8475 49.5183 34.3385C50.2561 34.8102 50.864 35.4305 51.3244 36.1813ZM65.9031 66.8411L61.0769 62.4502C60.2614 61.7394 59.6628 61.1224 58.3115 59.7155C56.9309 58.2783 55.9673 56.5295 54.9239 54.9643C53.8158 53.3029 52.6345 51.7155 51.4126 50.246C50.699 49.3883 49.8907 48.6392 48.9951 48.0044C49.394 47.8923 49.7932 47.7642 50.1918 47.6205C51.5194 47.142 52.7419 46.4832 53.8254 45.6628C54.9288 44.8277 55.8418 43.8258 56.5394 42.6845C57.2693 41.4899 57.6392 40.1341 57.6392 38.655C57.6392 36.7383 57.2365 35.1373 56.4419 33.8963C55.6596 32.6736 54.624 31.7133 53.3636 31.0415C52.1562 30.3993 50.7738 29.9635 49.2539 29.7459C47.8016 29.539 46.3176 29.4341 44.8437 29.4341H33.7705V64.5884H39.2904V48.669C40.8406 48.8096 42.1348 49.17 43.1473 49.7436C44.4268 50.4698 45.535 51.3837 46.4403 52.4595C48.0644 54.3892 49.243 56.6324 50.6646 58.7051C52.1795 60.9136 54.1531 62.6663 55.9963 64.5884C56.7364 65.3602 57.3194 65.9226 58.2472 66.8584L65.9031 66.8411Z" fill="#18222F"/>
<path d="M64.9006 50.339C65.0848 49.8397 65.2907 49.3022 65.5207 48.7248C65.9648 47.607 66.4448 46.4103 66.961 45.1347C67.4828 43.8449 67.9947 42.6119 68.4827 41.4696C68.9837 40.2943 69.4427 39.2266 69.859 38.2649C69.8769 38.2239 69.8942 38.1835 69.9117 38.1431L75.2323 50.339H64.9006ZM61.8887 59.3991C62.1082 58.596 62.8392 56.5778 63.3144 55.0992H77.267L81.385 64.584H87.4417L72.0618 29.4298H69.7563L58.4512 55.4244C59.7974 57.883 61.8887 59.3991 61.8887 59.3991Z" fill="#18222F"/>
<path d="M122.063 29.4298H119.387L109.236 54.909L99.0848 29.4298H96.3229L89.4111 64.584H95.4899L95.5412 63.6006C95.6284 61.9141 95.744 60.0511 95.8845 58.0631C96.0265 56.0433 96.1999 53.8685 96.3998 51.5986C96.5982 49.3416 96.8436 46.9527 97.1291 44.499C97.2766 43.2281 97.4452 41.9384 97.633 40.6407L107.11 64.584H109.166L118.711 40.4678L123.191 64.584H128.975L122.063 29.4298Z" fill="#18222F"/>
<path d="M35.1405 94.5369C33.347 96.4122 31.4491 97.8061 29.5004 98.6793C25.8317 100.323 22.1909 100.39 19.0833 99.0016C17.6101 98.3446 16.2955 97.4035 15.176 96.2041C14.051 95.0002 13.143 93.5247 12.4769 91.8179C11.8096 90.1105 11.471 88.1942 11.471 86.1221C11.471 84.0809 11.7946 82.2231 12.4326 80.601C13.0713 78.9781 13.9226 77.5879 14.9623 76.4693C15.9958 75.3573 17.1866 74.4964 18.5012 73.9105C21.0622 72.7692 23.8597 72.6954 26.6503 73.9711C28.0245 74.5994 29.3844 75.6351 30.6922 77.0488L31.4611 77.8802L35.9486 72.9304L34.9684 72.2589C33.3391 71.1428 31.6519 70.3078 29.9534 69.7769C28.2512 69.2453 26.5097 68.9757 24.7772 68.9757C22.3862 68.9757 20.0528 69.4287 17.8415 70.3222C15.6308 71.2156 13.6426 72.5054 11.9321 74.1551C10.2191 75.8082 8.83748 77.8181 7.82574 80.1279C6.81051 82.4454 6.2959 85.0565 6.2959 87.8882C6.2959 90.4809 6.72717 92.8586 7.57786 94.9546C8.42894 97.0525 9.59706 98.8681 11.0498 100.351C12.5033 101.836 14.1965 102.993 16.0818 103.79C17.9684 104.587 19.9662 104.992 22.0206 104.992C24.7883 104.992 27.5569 104.286 30.2499 102.895C32.9432 101.503 35.3577 99.307 37.427 96.3677L38.0061 95.5448L35.7761 93.8721L35.1405 94.5369Z" fill="#18222F"/>
<path d="M46.5199 101.234C46.8725 101.191 47.2197 101.146 47.5606 101.097C48.8469 100.916 50.21 100.887 51.5695 100.747C53.2159 100.578 54.4233 100.415 56.1594 99.9887L57.4441 99.673C58.4424 102.063 59.3022 103.247 61.7685 104.992L41.0308 104.992V69.8373H46.5506L46.5174 101.178L46.5199 101.234Z" fill="#18222F"/>
<path d="M100.96 88.4425C102.899 87.9908 104.72 87.7623 106.384 87.7623C109.11 87.7623 111.329 88.351 112.981 89.5117C114.539 90.608 115.297 92.2045 115.297 94.3922C115.297 95.7182 115.005 96.8083 114.429 97.631C113.824 98.4955 113.027 99.191 112.061 99.6986C111.045 100.232 109.877 100.61 108.586 100.82C105.963 101.249 103.317 101.228 100.96 100.941V88.4425ZM111.937 77.8954C111.937 78.9736 111.643 79.847 111.039 80.5658C110.372 81.3588 109.482 82.0403 108.393 82.5909C107.248 83.17 105.916 83.65 104.433 84.0172C103.29 84.3005 102.126 84.5584 100.96 84.7869V73.7333C104.973 73.115 108.045 73.4167 110.138 74.5982C111.366 75.292 111.937 76.3397 111.937 77.8954ZM117.16 86.296C116.061 85.496 114.793 84.885 113.391 84.48C113.363 84.4718 113.335 84.4638 113.307 84.4559C113.85 84.1429 114.361 83.7825 114.834 83.3773C115.637 82.6892 116.292 81.8598 116.781 80.9128C117.287 79.9352 117.543 78.8042 117.543 77.5506C117.543 72.4325 113.455 69.8373 105.393 69.8373H95.4404V104.992H105.609C108.199 104.992 110.476 104.693 112.377 104.105C114.305 103.508 115.914 102.692 117.16 101.679C118.431 100.647 119.384 99.4323 119.994 98.0674C120.597 96.7178 120.903 95.2932 120.903 93.8323C120.903 92.1726 120.557 90.6886 119.875 89.4208C119.201 88.1693 118.287 87.1179 117.16 86.296Z" fill="#18222F"/>
<path d="M91.7224 92.79C91.6225 93.8575 91.3995 94.914 91.0269 95.9197C90.733 96.7137 90.3656 97.4739 89.9107 98.1894C89.4674 98.8866 88.9522 99.5376 88.3789 100.133C87.7897 100.744 87.1395 101.297 86.4448 101.785C85.7194 102.296 84.9458 102.737 84.1408 103.109C83.6621 103.33 83.1724 103.527 82.6745 103.701C80.2116 104.56 77.6929 104.991 75.1599 104.992C74.3486 104.992 73.5364 104.947 72.7236 104.859C66.4039 104.169 62.1512 101.348 60.0846 96.4732C59.2301 94.459 59.0735 92.174 59.6186 89.6821C60.5406 85.4665 63.1251 82.2466 67.9987 79.2425C68.158 79.1442 68.3196 79.0486 68.4816 78.9532C68.8594 78.7307 69.2163 78.5204 69.5504 78.2577C69.5304 78.2394 69.5075 78.2194 69.4819 78.1977C69.4819 78.1977 67.0337 75.7287 67.0335 75.7287C65.1121 73.7913 64.4881 73.1612 62.8028 71.4618C62.0881 70.7408 61.4599 70.1073 60.7063 69.3473L68.2899 69.2613L70.0472 71.0338C71.6054 72.6563 72.9604 74.0259 74.539 75.4084C75.3085 76.0827 75.4486 76.7741 75.4303 77.2351C75.4116 77.7052 75.2102 78.4003 74.3564 79.0424C73.6866 79.5459 72.9866 80.0026 72.3098 80.4442C71.5191 80.9606 70.772 81.4478 70.0717 82.0021C67.2754 84.2148 65.6609 86.8219 65.2735 89.7513C63.6815 101.791 81.9938 106.302 85.8954 94.5705C86.4009 93.0507 86.1415 91.4729 85.7788 89.7161C85.4834 88.2845 85.1941 86.8518 84.9048 85.4189C84.5633 83.726 84.2216 82.0329 83.8692 80.342C83.6837 79.4507 83.4857 78.5617 83.2876 77.673C82.9725 76.2571 82.6467 74.7931 82.3757 73.3361C82.3298 73.0888 82.2702 72.8426 82.2107 72.5963C82.0516 71.9348 81.9949 71.1937 81.9225 70.3766L81.9357 69.4245L87.3773 69.4054L87.5688 70.2124C87.6984 70.7581 87.8299 71.3036 87.9614 71.8491C88.2629 73.0975 88.564 74.3463 88.8418 75.5993C89.0874 76.7063 89.3123 77.8169 89.5375 78.9279C89.6795 79.6291 89.8217 80.3304 89.969 81.0305C90.1861 82.0623 90.4068 83.0931 90.6277 84.1241C90.7891 84.8774 90.9144 85.653 91.098 86.3972C91.2882 87.1683 91.4533 87.9448 91.5722 88.7302C91.7133 89.6627 91.7919 90.6057 91.7846 91.5492C91.7813 91.963 91.7611 92.3774 91.7224 92.79Z" fill="#BC8D38"/>
<mask id="mask0_2659_3516" style="mask-type:luminance" maskUnits="userSpaceOnUse" x="1" y="112" width="127" height="38">
<path d="M121.033 149.999H7.94216C4.23537 149.999 1.23047 146.994 1.23047 143.287V118.904C1.23047 115.197 4.23537 112.192 7.94216 112.192H121.033C124.74 112.192 127.745 115.197 127.745 118.904V143.287C127.745 146.994 124.74 149.999 121.033 149.999Z" fill="white"/>
</mask>
<g mask="url(#mask0_2659_3516)">
<path d="M121.033 149.999H7.94216C4.23537 149.999 1.23047 146.994 1.23047 143.287V118.904C1.23047 115.197 4.23537 112.192 7.94216 112.192H121.033C124.74 112.192 127.745 115.197 127.745 118.904V143.287C127.745 146.994 124.74 149.999 121.033 149.999Z" fill="url(#paint0_linear_2659_3516)"/>
</g>
<path d="M23.4824 128.567C23.3504 129 23.134 129.423 22.8335 129.836C22.5324 130.25 22.1186 130.584 21.5921 130.838C21.0655 131.092 20.3976 131.219 19.5893 131.219H16.5987V123.601H19.7585C20.492 123.601 21.1076 123.719 21.6063 123.954C22.1044 124.19 22.5091 124.49 22.8193 124.857C23.1298 125.224 23.3504 125.628 23.4824 126.07C23.6137 126.512 23.6799 126.94 23.6799 127.354C23.6799 127.73 23.6137 128.134 23.4824 128.567ZM25.5558 123.884C24.9819 122.943 24.1687 122.224 23.1156 121.725C22.0621 121.227 20.7925 120.978 19.307 120.978H13.8623V141.375H16.5987V133.899H19.6174C20.8586 133.899 21.9117 133.706 22.777 133.321C23.6418 132.935 24.3428 132.428 24.8789 131.797C25.4147 131.167 25.805 130.462 26.0496 129.681C26.2938 128.901 26.4163 128.106 26.4163 127.297C26.4163 125.962 26.1294 124.824 25.5558 123.884Z" fill="white"/>
<path d="M40.5785 131.219H37.6163V123.601H40.776C41.4906 123.601 42.0971 123.724 42.5957 123.968C43.0938 124.213 43.4985 124.528 43.8087 124.913C44.1192 125.299 44.3447 125.708 44.4857 126.141C44.6268 126.573 44.6975 126.997 44.6975 127.41C44.6975 127.824 44.6312 128.247 44.4999 128.68C44.3682 129.113 44.1518 129.522 43.8511 129.907C43.55 130.293 43.1317 130.608 42.5957 130.852C42.0598 131.097 41.387 131.219 40.5785 131.219ZM49.2676 141.375L44.1638 133.165C44.9139 132.798 45.5297 132.333 46.0092 131.769C46.5452 131.139 46.9306 130.439 47.1658 129.667C47.4009 128.896 47.5186 128.106 47.5186 127.297C47.5186 126.282 47.3352 125.379 46.9685 124.589C46.6017 123.799 46.0939 123.136 45.445 122.6C44.7962 122.064 44.0345 121.66 43.1599 121.387C42.2853 121.114 41.3305 120.978 40.2964 120.978H34.8799V141.375H37.6163V133.871H40.635C40.8582 133.871 41.0731 133.863 41.2841 133.852L46.1079 141.375H49.2676Z" fill="white"/>
<path d="M57.7017 120.978V141.375H60.4381V120.978H57.7017Z" fill="white"/>
<path d="M90.7938 120.329L80.595 134.591L70.5664 120.329H70.5381V141.375H73.19V128.547L80.5531 138.808H80.6096L88.0855 128.198V141.375H90.8222V120.329H90.7938Z" fill="white"/>
<path d="M100.919 120.978H114.178V123.601H103.656V129.808H113.05V132.46H103.656V138.751H114.573V141.375H100.919V120.978Z" fill="white"/>
<defs>
<linearGradient id="paint0_linear_2659_3516" x1="-7.41436" y1="104.059" x2="156.114" y2="165.547" gradientUnits="userSpaceOnUse">
<stop stop-color="#231535"/>
<stop offset="1" stop-color="#743AA0"/>
</linearGradient>
</defs>
</svg>
