<svg width="109" height="126" viewBox="0 0 109 126" fill="none" xmlns="http://www.w3.org/2000/svg">
<path d="M32.1578 2.18677C33.0154 2.08869 33.7982 2.02815 34.4938 2.00579V19.8228H37.6064V2.00579C38.3017 2.02815 39.0847 2.08869 39.9424 2.18661C41.024 2.31063 42.0566 2.55279 43.0116 2.90706L43.7996 3.19917V0.000886917H28.3008V3.19933L29.0888 2.9069C30.0433 2.55295 31.0757 2.31062 32.1578 2.18677Z" fill="white"/>
<path d="M49.5323 11.468H58.9036C59.2278 14.4619 59.2058 17.2842 58.6111 19.8228L62.016 19.8226V0.000730515H58.6111C59.1208 3.02913 59.2613 5.93597 58.9036 8.67863H49.5323C49.2765 5.87314 49.4072 2.97235 49.8246 0.000730515H46.4199V19.8226L49.8246 19.8228C49.1826 17.0401 49.1946 14.2547 49.5323 11.468Z" fill="white"/>
<path d="M79.3318 16.4288L78.6079 16.6057C77.8281 16.7966 77.0424 16.966 76.2725 17.1088C75.4994 17.2521 74.6897 17.3771 73.8658 17.4801H73.8656C73.042 17.583 72.1558 17.6638 71.2312 17.7194C70.4789 17.765 69.6687 17.7976 68.8155 17.8165V11.4681H76.6132V8.67879H68.8155V2.00693C69.5796 2.02259 70.3085 2.04316 70.9897 2.06861C71.8464 2.10093 72.6861 2.1533 73.4857 2.22461C74.287 2.29609 75.0745 2.39238 75.8265 2.51118C76.5771 2.62981 77.3495 2.78582 78.1221 2.97495L78.846 3.15233V0.000886917H65.7031V19.8228H79.3318V16.4288Z" fill="white"/>
<path d="M18.7937 33.8336C19.3354 35.3358 19.6103 37.2509 19.6103 39.5262C19.6103 41.7961 19.3193 43.7061 18.7455 45.2023C18.1835 46.6679 17.4043 47.8502 16.4291 48.7165C15.452 49.5856 14.2689 50.2092 12.9128 50.57C10.9335 51.0966 8.6333 51.2544 6.11454 51.0501C5.63461 51.0117 5.14016 50.9644 4.6369 50.9088V28.0521C6.04208 27.8648 7.35278 27.77 8.54159 27.77C10.2351 27.77 11.7909 27.9715 13.1659 28.369C14.484 28.7504 15.6305 29.3943 16.5734 30.2825C17.5174 31.1726 18.2643 32.3672 18.7937 33.8336ZM20.669 50.4479C23.3074 47.9127 24.6452 44.1894 24.6452 39.3815C24.6452 34.6683 23.3064 31.0048 20.6657 28.4929C18.0371 25.9929 14.0554 24.7254 8.83108 24.7254H0V54.2549H8.83108C14.0574 54.2549 18.0401 52.9739 20.669 50.4479Z" fill="white"/>
<path d="M43.1145 30.391C43.4854 30.9972 43.6738 31.7815 43.6738 32.7221C43.6738 33.7203 43.4508 34.5532 43.0107 35.1983C42.5481 35.8773 41.9357 36.4313 41.1909 36.8453C40.4083 37.2804 39.5104 37.5953 38.5217 37.7817C36.6844 38.1291 34.818 38.1572 33.0059 37.9108V27.9483C33.4778 27.8721 33.9806 27.8107 34.5078 27.7647C35.311 27.6948 36.0586 27.6594 36.7298 27.6594C37.6021 27.6594 38.4892 27.7562 39.3662 27.947C40.2014 28.1292 40.9522 28.4306 41.5974 28.843C42.2172 29.2392 42.7278 29.7603 43.1145 30.391ZM55.3607 56.1452L51.3067 52.4568C50.6217 51.8597 50.1189 51.3414 48.9838 50.1597C47.824 48.9524 47.0146 47.4834 46.1382 46.1686C45.2074 44.773 44.215 43.4397 43.1886 42.2053C42.5892 41.4849 41.9102 40.8556 41.1579 40.3223C41.493 40.2282 41.8283 40.1206 42.1632 39.9999C43.2784 39.5979 44.3053 39.0446 45.2154 38.3554C46.1423 37.6539 46.9092 36.8124 47.4952 35.8536C48.1083 34.8502 48.419 33.7113 48.419 32.4688C48.419 30.8588 48.0807 29.514 47.4133 28.4716C46.7562 27.4445 45.8862 26.6379 44.8275 26.0736C43.8133 25.5341 42.6521 25.1681 41.3753 24.9853C40.1553 24.8115 38.9088 24.7234 37.6707 24.7234H28.3691V54.2528H33.0059V40.8806C34.3081 40.9987 35.3952 41.3014 36.2457 41.7833C37.3205 42.3933 38.2514 43.1609 39.0119 44.0647C40.3761 45.6856 41.3662 47.5699 42.5603 49.3109C43.8329 51.166 45.4907 52.6383 47.039 54.2528C47.6607 54.9012 48.1504 55.3736 48.9298 56.1597L55.3607 56.1452Z" fill="white"/>
<path d="M54.5152 42.2891C54.6699 41.8697 54.8429 41.4182 55.0361 40.9332C55.4092 39.9942 55.8124 38.989 56.246 37.9175C56.6843 36.8341 57.1143 35.7984 57.5242 34.8389C57.945 33.8516 58.3307 32.9547 58.6804 32.1469C58.6954 32.1125 58.7099 32.0786 58.7246 32.0446L63.1939 42.2891H54.5152ZM51.9852 49.8996C52.1696 49.225 52.7837 47.5297 53.1828 46.2877H64.9031L68.3623 54.2549H73.4499L60.5307 24.7254H58.594L49.0977 46.5608C50.2285 48.6261 51.9852 49.8996 51.9852 49.8996Z" fill="white"/>
<path d="M102.533 24.7254H100.286L91.7585 46.1279L83.2314 24.7254H80.9114L75.1055 54.2549H80.2117L80.2548 53.4288C80.328 52.0122 80.4251 50.4473 80.5431 48.7774C80.6624 47.0807 80.8081 45.2539 80.976 43.3472C81.1427 41.4513 81.3488 39.4446 81.5886 37.3836C81.7125 36.316 81.8541 35.2326 82.0119 34.1425L89.9726 54.2549H91.6994L99.7173 33.9973L103.481 54.2549H108.34L102.533 24.7254Z" fill="white"/>
<path d="M29.5168 79.4038C28.0103 80.979 26.416 82.1499 24.7791 82.8834C21.6973 84.2643 18.6391 84.3204 16.0286 83.1541C14.7912 82.6022 13.6869 81.8118 12.7465 80.8042C11.8015 79.793 11.0387 78.5536 10.4792 77.1198C9.91862 75.6856 9.63419 74.0759 9.63419 72.3354C9.63419 70.6208 9.90606 69.0602 10.442 67.6976C10.9785 66.3344 11.6936 65.1666 12.567 64.227C13.4351 63.2929 14.4354 62.5698 15.5397 62.0777C17.691 61.119 20.0408 61.057 22.385 62.1286C23.5393 62.6563 24.6816 63.5263 25.7802 64.7138L26.4261 65.4122L30.1957 61.2544L29.3722 60.6903C28.0036 59.7528 26.5863 59.0514 25.1596 58.6054C23.7298 58.1589 22.2668 57.9324 20.8115 57.9324C18.8031 57.9324 16.843 58.313 14.9855 59.0635C13.1285 59.814 11.4584 60.8974 10.0216 62.2831C8.58263 63.6717 7.42206 65.36 6.57219 67.3003C5.71939 69.2469 5.28711 71.4403 5.28711 73.8189C5.28711 75.9968 5.64938 77.994 6.36397 79.7546C7.07888 81.5169 8.06011 83.042 9.28041 84.2876C10.5014 85.5352 11.9237 86.5071 13.5074 87.1762C15.0921 87.846 16.7703 88.1858 18.4959 88.1858C20.8208 88.1858 23.1466 87.5929 25.4086 86.4244C27.671 85.2551 29.6992 83.4106 31.4375 80.9416L31.9239 80.2504L30.0507 78.8454L29.5168 79.4038Z" fill="white"/>
<path d="M39.0758 85.029C39.372 84.9932 39.6636 84.955 39.95 84.9144C41.0304 84.7618 42.1755 84.7378 43.3175 84.6203C44.7005 84.4779 45.7146 84.3418 47.173 83.9833L48.2522 83.7181C49.0908 85.7261 49.813 86.7204 51.8847 88.1856L34.4648 88.1858V58.6562H39.1016L39.0737 84.9825L39.0758 85.029Z" fill="white"/>
<path d="M84.8106 74.2845C86.4391 73.9051 87.969 73.7132 89.3667 73.7132C91.6565 73.7132 93.5207 74.2076 94.9078 75.1826C96.217 76.1035 96.8536 77.4446 96.8536 79.2822C96.8536 80.3961 96.6082 81.3117 96.1245 82.0028C95.616 82.729 94.947 83.3132 94.1353 83.7396C93.2821 84.1881 92.3003 84.505 91.2162 84.6819C89.0126 85.0422 86.7902 85.0241 84.8106 84.7834V74.2845ZM94.0315 65.4249C94.0315 66.3306 93.7844 67.0643 93.2771 67.6681C92.7164 68.3342 91.9685 68.9067 91.054 69.3691C90.0925 69.8556 88.9734 70.2588 87.728 70.5673C86.7676 70.8052 85.7902 71.0219 84.8106 71.2138V61.9289C88.1816 61.4094 90.7614 61.6629 92.5202 62.6554C93.5512 63.2381 94.0315 64.1182 94.0315 65.4249ZM98.4182 72.4814C97.4954 71.8094 96.4303 71.2962 95.2526 70.956C95.2289 70.9491 95.2053 70.9424 95.1818 70.9357C95.6384 70.6728 96.0675 70.3701 96.4644 70.0297C97.1387 69.4517 97.6891 68.7551 98.1002 67.9596C98.5249 67.1384 98.7404 66.1883 98.7404 65.1353C98.7404 60.8362 95.3066 58.6562 88.5344 58.6562H80.1738V88.1858H88.7154C90.8912 88.1858 92.8038 87.9351 94.4004 87.4413C96.0201 86.9397 97.372 86.254 98.4185 85.4035C99.4858 84.5366 100.287 83.5159 100.799 82.3694C101.306 81.2357 101.563 80.0391 101.563 78.8119C101.563 77.4178 101.272 76.1712 100.699 75.1063C100.132 74.055 99.3655 73.1719 98.4182 72.4814Z" fill="white"/>
<path d="M77.0469 77.9364C76.963 78.8331 76.7757 79.7205 76.4627 80.5653C76.2158 81.2323 75.9072 81.8708 75.5251 82.4718C75.1527 83.0575 74.7199 83.6043 74.2383 84.1042C73.7434 84.6179 73.1972 85.082 72.6137 85.4924C72.0043 85.9213 71.3545 86.2915 70.6783 86.6042C70.2762 86.7901 69.8648 86.9557 69.4466 87.1014C67.3777 87.8229 65.262 88.1855 63.1343 88.1858C62.4528 88.1858 61.7705 88.1484 61.0878 88.074C55.7792 87.495 52.2069 85.1251 50.4709 81.0303C49.7531 79.3383 49.6216 77.4189 50.0795 75.3258C50.8539 71.7846 53.025 69.08 57.1188 66.5565C57.2526 66.4739 57.3884 66.3936 57.5245 66.3135C57.8418 66.1266 58.1416 65.9499 58.4223 65.7293C58.4055 65.714 58.3862 65.6971 58.3647 65.6789C58.3647 65.6789 56.3082 63.6049 56.3081 63.6049C54.694 61.9775 54.1699 61.4483 52.7542 60.0207C52.1539 59.4151 51.6261 58.883 50.9931 58.2446L57.3634 58.1723L58.8396 59.6612C60.1485 61.0242 61.2867 62.1746 62.6127 63.3358C63.2591 63.9023 63.3768 64.483 63.3614 64.8703C63.3457 65.2652 63.1765 65.8491 62.4593 66.3884C61.8967 66.8114 61.3087 67.195 60.7402 67.5659C60.076 67.9997 59.4484 68.409 58.8601 68.8745C56.5112 70.7332 55.155 72.9232 54.8296 75.3839C53.4923 85.497 68.8748 89.2868 72.1522 79.432C72.5768 78.1554 72.3589 76.83 72.0543 75.3543C71.8061 74.1518 71.5631 72.9483 71.3201 71.7447C71.0332 70.3227 70.7462 68.9005 70.4502 67.4801C70.2943 66.7314 70.128 65.9847 69.9616 65.2381C69.6969 64.0488 69.4232 62.819 69.1956 61.5951C69.1571 61.3874 69.107 61.1807 69.057 60.9737C68.9234 60.4181 68.8758 59.7955 68.8149 59.1092L68.826 58.3094L73.397 58.2934L73.5579 58.9713C73.6667 59.4297 73.7772 59.8879 73.8876 60.3461C74.1409 61.3948 74.3939 62.4437 74.6272 63.4963C74.8335 64.4261 75.0224 65.359 75.2116 66.2923C75.3309 66.8812 75.4503 67.4703 75.574 68.0584C75.7564 68.9251 75.9418 69.791 76.1274 70.657C76.263 71.2899 76.3682 71.9413 76.5224 72.5665C76.6822 73.2141 76.8209 73.8664 76.9208 74.5262C77.0392 75.3094 77.1053 76.1016 77.0991 76.8941C77.0964 77.2417 77.0794 77.5898 77.0469 77.9364Z" fill="#BC8D38"/>
<mask id="mask0_2659_4163" style="mask-type:luminance" maskUnits="userSpaceOnUse" x="1" y="94" width="107" height="32">
<path d="M101.667 126H6.66912C3.55539 126 1.03125 123.476 1.03125 120.362V99.8803C1.03125 96.7666 3.55539 94.2424 6.66912 94.2424H101.667C104.78 94.2424 107.305 96.7666 107.305 99.8803V120.362C107.305 123.476 104.78 126 101.667 126Z" fill="white"/>
</mask>
<g mask="url(#mask0_2659_4163)">
<path d="M101.667 126H6.66912C3.55539 126 1.03125 123.476 1.03125 120.362V99.8803C1.03125 96.7666 3.55539 94.2424 6.66912 94.2424H101.667C104.78 94.2424 107.305 96.7666 107.305 99.8803V120.362C107.305 123.476 104.78 126 101.667 126Z" fill="url(#paint0_linear_2659_4163)"/>
</g>
<path d="M19.7254 107.986C19.6146 108.35 19.4329 108.705 19.1804 109.052C18.9275 109.4 18.5799 109.68 18.1377 109.894C17.6953 110.107 17.1342 110.214 16.4552 110.214H13.9432V103.815H16.5974C17.2135 103.815 17.7307 103.914 18.1496 104.112C18.568 104.309 18.9079 104.562 19.1685 104.87C19.4293 105.178 19.6146 105.518 19.7254 105.889C19.8358 106.26 19.8914 106.62 19.8914 106.967C19.8914 107.283 19.8358 107.623 19.7254 107.986ZM21.4671 104.052C20.9851 103.262 20.302 102.658 19.4174 102.239C18.5324 101.821 17.466 101.611 16.2181 101.611H11.6445V118.745H13.9432V112.465H16.4789C17.5215 112.465 18.4061 112.303 19.1329 111.979C19.8594 111.656 20.4482 111.229 20.8986 110.699C21.3486 110.17 21.6765 109.578 21.8819 108.922C22.0871 108.267 22.19 107.599 22.19 106.92C22.19 105.798 21.949 104.842 21.4671 104.052Z" fill="white"/>
<path d="M34.0876 110.214H31.5994V103.815H34.2536C34.8538 103.815 35.3633 103.918 35.7822 104.123C36.2006 104.329 36.5405 104.594 36.8011 104.917C37.0619 105.241 37.2513 105.585 37.3698 105.948C37.4882 106.312 37.5477 106.667 37.5477 107.014C37.5477 107.362 37.492 107.718 37.3817 108.081C37.271 108.444 37.0893 108.788 36.8367 109.112C36.5837 109.436 36.2324 109.7 35.7822 109.906C35.3319 110.111 34.7668 110.214 34.0876 110.214ZM41.3866 118.745L37.0994 111.849C37.7294 111.54 38.2467 111.149 38.6495 110.676C39.0997 110.147 39.4235 109.558 39.6211 108.91C39.8185 108.263 39.9174 107.599 39.9174 106.92C39.9174 106.066 39.7634 105.308 39.4553 104.645C39.1472 103.981 38.7206 103.424 38.1756 102.974C37.6306 102.524 36.9907 102.184 36.256 101.955C35.5214 101.726 34.7193 101.611 33.8507 101.611H29.3008V118.745H31.5994V112.441H34.1351C34.3226 112.441 34.5031 112.435 34.6803 112.425L38.7324 118.745H41.3866Z" fill="white"/>
<path d="M48.4688 101.611V118.745H50.7674V101.611H48.4688Z" fill="white"/>
<path d="M76.2689 101.066L67.7018 113.047L59.2777 101.066H59.2539V118.745H61.4815V107.969L67.6666 116.588H67.7141L73.9939 107.676V118.745H76.2927V101.066H76.2689Z" fill="white"/>
<path d="M84.7754 101.611H95.9134V103.815H87.0742V109.029H94.9655V111.256H87.0742V116.541H96.2452V118.745H84.7754V101.611Z" fill="white"/>
<defs>
<linearGradient id="paint0_linear_2659_4163" x1="-6.23048" y1="87.4105" x2="131.135" y2="139.061" gradientUnits="userSpaceOnUse">
<stop stop-color="#231535"/>
<stop offset="1" stop-color="#743AA0"/>
</linearGradient>
</defs>
</svg>
