<svg width="74" height="74" viewBox="0 0 74 74" fill="none" xmlns="http://www.w3.org/2000/svg">
<circle cx="37" cy="37" r="33.5" stroke="white" stroke-width="7"/>
<path d="M57.5632 14.8949L57.5632 14.8949C63.9978 17.3725 67.8775 23.9625 66.8308 30.7714C64.5967 45.3057 56.831 58.0245 45.7507 66.7922C40.3456 71.0693 32.6544 71.0693 27.2493 66.7922C16.169 58.0245 8.40327 45.3057 6.16924 30.7714L57.5632 14.8949ZM57.5632 14.8949C51.0286 12.3788 43.9225 11 36.5002 11M57.5632 14.8949L36.5002 11M36.5002 11C29.0779 11 21.9717 12.3788 15.4367 14.8953M36.5002 11L15.4367 14.8953M15.4367 14.8953C9.00236 17.3728 5.1225 23.9627 6.16921 30.7713L15.4367 14.8953Z" stroke="white" stroke-width="8"/>
</svg>
