<svg width="70" height="70" viewBox="0 0 70 70" fill="none" xmlns="http://www.w3.org/2000/svg">
<path d="M36 60C51.464 60 64 47.464 64 32C64 16.536 51.464 4 36 4C20.536 4 8 16.536 8 32C8 47.464 20.536 60 36 60Z" stroke="white" stroke-width="7"/>
<mask id="path-2-outside-1_115_34" maskUnits="userSpaceOnUse" x="7" y="7" width="57" height="56" fill="black">
<rect fill="white" x="7" y="7" width="57" height="56"/>
<path d="M51.3963 16.773C55.8674 18.5367 57.5648 23.2276 56.8375 28.0746C55.2852 38.421 49.8892 47.4751 42.19 53.7165C38.4343 56.7612 33.09 56.7612 29.3343 53.7165C21.6351 47.4751 15.6792 37.4715 14.1269 27.125L14 26L14.0108 25L14.1093 24L14.3203 23L15 21.2702L15.5838 20.4376C16.0211 19.8139 16.5168 19.2334 17.0641 18.7037L17.1171 18.6524L18.1577 17.8773L19.1755 17.2874L20.3148 16.773L22 16.1797L23.5 15.7457L27.25 14.9705L30.5 14.4896L34.2864 14.087L37.1105 14L41.5 14.2474L45.5 14.9316L48.5006 15.7457L51.3963 16.773ZM51.3963 16.773C46.8557 14.9819 42.2679 14 37.1105 14ZM51.3963 16.773L48.5006 15.7457L45.5 14.9316L41.5 14.2474L37.1105 14M37.1105 14C31.9531 14 24.8556 14.9816 20.3148 16.773ZM37.1105 14L33.5 14.1387L29.5 14.5637L25 15.3773L23 15.8904L20.3148 16.773M20.3148 16.773C15.8438 18.5366 13.3996 22.2782 14.1269 27.125L14 26L14.0108 25L14.1093 24L14.3203 23L15 21.2702L15.5838 20.4376C16.0211 19.8139 16.5168 19.2334 17.0641 18.7037L17.1171 18.6524L18.1577 17.8773L19.1755 17.2874L20.3148 16.773Z"/>
</mask>
<path d="M45.5 14.9316L46.4164 11.5537L46.255 11.5099L46.0902 11.4817L45.5 14.9316ZM41.5 14.2474L42.0902 10.7975L41.8948 10.764L41.6969 10.7529L41.5 14.2474ZM48.5006 15.7457L49.6709 12.4471L49.5455 12.4026L49.4171 12.3678L48.5006 15.7457ZM14.3203 23L11.0628 21.72L10.956 21.9917L10.8958 22.2773L14.3203 23ZM14.0108 25L10.5276 24.6569L10.5126 24.8092L10.511 24.9623L14.0108 25ZM18.1577 17.8773L16.4026 14.8492L16.2285 14.9501L16.067 15.0703L18.1577 17.8773ZM15 21.2702L12.1343 19.2608L11.8949 19.6022L11.7424 19.9903L15 21.2702ZM14.1093 24L10.6847 23.2773L10.645 23.4654L10.6262 23.6569L14.1093 24ZM14 26L10.5002 25.9623L10.4979 26.1779L10.522 26.3922L14 26ZM17.1171 18.6524L15.0264 15.8455L14.8453 15.9803L14.6831 16.1373L17.1171 18.6524ZM19.1755 17.2874L17.735 14.0976L17.5736 14.1705L17.4204 14.2593L19.1755 17.2874ZM17.0641 18.7037L14.6301 16.1886L17.0641 18.7037ZM46.0902 11.4817L42.0902 10.7975L40.9098 17.6972L44.9098 18.3815L46.0902 11.4817ZM41.6969 10.7529L37.3074 10.5055L36.9136 17.4945L41.3031 17.7418L41.6969 10.7529ZM52.5665 13.4744L49.6709 12.4471L47.3304 19.0443L50.2261 20.0715L52.5665 13.4744ZM49.4171 12.3678L46.4164 11.5537L44.5836 18.3095L47.5842 19.1236L49.4171 12.3678ZM17.5779 24.28L18.2576 22.5502L11.7424 19.9903L11.0628 21.72L17.5779 24.28ZM17.8657 23.2796L18.4495 22.447L12.7181 18.4282L12.1343 19.2608L17.8657 23.2796ZM17.4939 25.3431L17.5924 24.3431L10.6262 23.6569L10.5276 24.6569L17.4939 25.3431ZM17.5339 24.7227L17.7449 23.7227L10.8958 22.2773L10.6847 23.2773L17.5339 24.7227ZM17.6048 26.7328L17.478 25.6078L10.522 26.3922L10.6489 27.5172L17.6048 26.7328ZM17.4998 26.0377L17.5106 25.0377L10.511 24.9623L10.5002 25.9623L17.4998 26.0377ZM19.4981 21.2188L19.551 21.1675L14.6831 16.1373L14.6301 16.1886L19.4981 21.2188ZM19.2078 21.4594L20.2484 20.6842L16.067 15.0703L15.0264 15.8455L19.2078 21.4594ZM19.9129 20.9054L20.9306 20.3156L17.4204 14.2593L16.4026 14.8492L19.9129 20.9054ZM20.6159 20.4773L21.7552 19.9628L18.8743 13.5831L17.735 14.0976L20.6159 20.4773ZM18.4495 22.447C18.7593 22.0052 19.1104 21.594 19.4981 21.2188L14.6301 16.1886C13.9232 16.8727 13.2829 17.6227 12.7181 18.4282L18.4495 22.447ZM51.3963 16.773L53.9649 10.2613L53.9649 10.2613L51.3963 16.773ZM56.8375 28.0746L49.915 27.0358L49.915 27.0359L56.8375 28.0746ZM42.19 53.7165L37.7819 48.2788L37.7818 48.2788L42.19 53.7165ZM29.3343 53.7165L33.7424 48.2788L33.7424 48.2788L29.3343 53.7165ZM14.1269 27.125L21.0494 26.0864L21.0494 26.0862L14.1269 27.125ZM23.5 15.7457L22.0829 8.89062L21.816 8.94579L21.5543 9.02153L23.5 15.7457ZM29.5 14.5637L28.7605 7.60283L28.5062 7.62985L28.2546 7.67534L29.5 14.5637ZM30.5 14.4896L29.7599 7.52883L29.6173 7.54399L29.4754 7.56498L30.5 14.4896ZM25 15.3773L23.7546 8.48895L23.5056 8.53397L23.2605 8.59684L25 15.3773ZM22 16.1797L20.0543 9.45557L19.8633 9.51085L19.6757 9.57688L22 16.1797ZM23 15.8904L21.2605 9.10994L21.0352 9.16774L20.8143 9.24036L23 15.8904ZM27.25 14.9705L26.2254 8.04585L26.0282 8.07504L25.8329 8.11541L27.25 14.9705ZM33.5 14.1387L33.2313 7.14387L32.9953 7.15294L32.7605 7.17788L33.5 14.1387ZM34.2864 14.087L34.0707 7.09036L33.8078 7.09846L33.5463 7.12627L34.2864 14.087ZM48.8276 23.2846C49.2335 23.4448 49.4717 23.6671 49.6742 24.1208C49.9249 24.6824 50.119 25.6768 49.915 27.0358L63.76 29.1133C64.7768 22.337 62.5372 13.6428 53.9649 10.2613L48.8276 23.2846ZM49.915 27.0359C48.6288 35.6082 44.159 43.1091 37.7819 48.2788L46.5981 59.1542C55.6194 51.841 61.9415 41.2338 63.7601 29.1132L49.915 27.0359ZM37.7818 48.2788C36.5957 49.2404 34.9286 49.2404 33.7424 48.2788L24.9261 59.1541C31.2514 64.282 40.2728 64.282 46.5982 59.1541L37.7818 48.2788ZM33.7424 48.2788C27.3616 43.1062 22.3348 34.6542 21.0494 26.0864L7.20435 28.1636C9.02354 40.2888 15.9085 51.8439 24.9261 59.1542L33.7424 48.2788ZM53.9649 10.2613C48.6834 8.17789 43.2263 7 37.1105 7V21C41.3095 21 45.028 21.7858 48.8277 23.2847L53.9649 10.2613ZM37.1105 7C31.4035 7 23.3638 8.04504 17.7459 10.2614L22.8836 23.2846C26.3474 21.9181 32.5027 21 37.1105 21V7ZM17.7461 10.2613C14.3414 11.6043 11.3017 13.872 9.30215 17.1367C7.27808 20.4414 6.62167 24.2806 7.20438 28.1638L21.0494 26.0862C20.9048 25.1226 21.1068 24.6676 21.2408 24.4489C21.3993 24.1902 21.8172 23.7052 22.8834 23.2846L17.7461 10.2613ZM28.2546 7.67534L23.7546 8.48895L26.2454 22.2656L30.7454 21.452L28.2546 7.67534ZM22.6391 23.3758L24.3243 22.7826L19.6757 9.57688L17.9904 10.1701L22.6391 23.3758ZM23.9457 22.9039L25.4457 22.4698L21.5543 9.02153L20.0543 9.45557L23.9457 22.9039ZM23.2605 8.59684L21.2605 9.10994L24.7395 22.6708L26.7395 22.1577L23.2605 8.59684ZM20.8143 9.24036L18.129 10.123L22.5005 23.423L25.1857 22.5404L20.8143 9.24036ZM24.9171 22.6007L28.6671 21.8255L25.8329 8.11541L22.0829 8.89062L24.9171 22.6007ZM28.2746 21.8951L31.5246 21.4142L29.4754 7.56498L26.2254 8.04585L28.2746 21.8951ZM36.8417 7.00516L33.2313 7.14387L33.7687 21.1335L37.3792 20.9948L36.8417 7.00516ZM32.7605 7.17788L28.7605 7.60283L30.2395 21.5245L34.2395 21.0995L32.7605 7.17788ZM31.2401 21.4504L35.0264 21.0478L33.5463 7.12627L29.7599 7.52883L31.2401 21.4504ZM34.502 21.0837L37.3261 20.9967L36.8948 7.00332L34.0707 7.09036L34.502 21.0837Z" fill="white" mask="url(#path-2-outside-1_115_34)"/>
</svg>
