<svg width="70" height="70" viewBox="0 0 70 70" fill="none" xmlns="http://www.w3.org/2000/svg">
<path d="M36 60C51.464 60 64 47.464 64 32C64 16.536 51.464 4 36 4C20.536 4 8 16.536 8 32C8 47.464 20.536 60 36 60Z" stroke="white" stroke-width="7"/>
<path d="M60.9118 23.0445L60.9118 23.0444C61.453 19.5121 59.4503 16.0338 56.0358 14.7146M60.9118 23.0445L56.0358 14.7146M60.9118 23.0445C58.8007 36.8251 51.4571 48.9269 40.92 57.293C38.0533 59.569 33.9467 59.569 31.08 57.293C20.543 48.9269 13.1993 36.8251 11.0882 23.0445L11.0882 23.0444C10.5471 19.5126 12.5496 16.0343 15.9642 14.715L15.9643 14.715C22.168 12.318 28.9235 11 36.0002 11C43.077 11 49.8325 12.318 56.0358 14.7146M60.9118 23.0445L57.4773 10.9834L56.0358 14.7146" stroke="white" stroke-width="8"/>
</svg>
