<svg width="70" height="70" viewBox="0 0 70 70" fill="none" xmlns="http://www.w3.org/2000/svg">
<path d="M36 60C51.464 60 64 47.464 64 32C64 16.536 51.464 4 36 4C20.536 4 8 16.536 8 32C8 47.464 20.536 60 36 60Z" stroke="white" stroke-width="7"/>
<path d="M53.6607 14.1691C58.7186 16.1847 60.6389 21.5458 59.8161 27.0852C58.06 38.9097 51.9558 49.2572 43.2462 56.3902C38.9975 59.8699 32.9519 59.8699 28.7032 56.3902C19.9936 49.2572 13.2561 37.8245 11.5 26M53.6607 14.1691C48.5242 12.1221 41.8092 11 35.9749 11M53.6607 14.1691L35.9749 11M53.6607 14.1691L21.8258 13.7082L18.5 14.1691M11.5 26C10.6772 20.4608 13.4423 16.1846 18.5 14.1691M11.5 26V22.0491C11.5 18.0284 14.5073 14.643 18.5 14.1691V14.1691M35.9749 11C30.1406 11 23.6368 12.1218 18.5 14.1691M35.9749 11L18.5 14.1691" stroke="white" stroke-width="8"/>
</svg>
