<svg width="205" height="200" viewBox="0 0 205 200" fill="none" xmlns="http://www.w3.org/2000/svg">
<path d="M170.812 99.9571C195.929 112.541 208.112 131.923 202.878 159.577C198.669 181.807 181.589 197.383 158.443 199.65C130.634 202.374 112.476 188.537 102.416 162.674C92.2546 188.488 74.1772 202.393 46.3084 199.661C23.2712 197.403 6.95833 181.804 1.77951 159.537C-1.10853 147.122 1.02421 135.352 6.84883 124.194C12.7195 112.949 22.1576 105.504 34.5323 100.006C21.5367 94.5976 12.0202 86.5908 6.21299 74.79C0.423212 63.0265 -1.12595 50.7307 2.38425 37.924C7.84801 17.9882 26.1419 2.38475 45.2246 0.329247C66.4277 -1.9563 91.6511 7.36621 102.338 37.4489C113.389 9.90294 133.131 -3.98072 162.818 1.28674C186.677 5.51961 201.233 22.5618 204.017 47.3099C205.789 63.0501 199.454 87.2772 170.812 99.9559V99.9571Z" fill="#F3F3F3"/>
</svg>
