<svg width="20" height="20" viewBox="0 0 20 20" fill="none" xmlns="http://www.w3.org/2000/svg">
<path d="M9.9915 1.66553C5.3915 1.66553 1.6665 5.39886 1.6665 9.99886C1.6665 14.5989 5.3915 18.3322 9.9915 18.3322C14.5998 18.3322 18.3332 14.5989 18.3332 9.99886C18.3332 5.39886 14.5998 1.66553 9.9915 1.66553ZM9.99984 16.6655C6.3165 16.6655 3.33317 13.6822 3.33317 9.99886C3.33317 6.31553 6.3165 3.33219 9.99984 3.33219C13.6832 3.33219 16.6665 6.31553 16.6665 9.99886C16.6665 13.6822 13.6832 16.6655 9.99984 16.6655ZM10.4165 5.83219H9.1665V10.8322L13.5415 13.4572L14.1665 12.4322L10.4165 10.2072V5.83219Z" fill="#171717"/>
</svg>
