<svg width="18" height="19" viewBox="0 0 18 19" fill="none" xmlns="http://www.w3.org/2000/svg">
<path d="M14.5726 10.235C14.6026 9.995 14.6251 9.755 14.6251 9.5C14.6251 9.245 14.6026 9.005 14.5726 8.765L16.1551 7.5275C16.2976 7.415 16.3351 7.2125 16.2451 7.0475L14.7451 4.4525C14.6776 4.3325 14.5501 4.265 14.4151 4.265C14.3701 4.265 14.3251 4.2725 14.2876 4.2875L12.4201 5.0375C12.0301 4.7375 11.6101 4.49 11.1526 4.3025L10.8676 2.315C10.8451 2.135 10.6876 2 10.5001 2H7.50012C7.31262 2 7.15512 2.135 7.13262 2.315L6.84762 4.3025C6.39012 4.49 5.97012 4.745 5.58012 5.0375L3.71262 4.2875C3.66762 4.2725 3.62262 4.265 3.57762 4.265C3.45012 4.265 3.32262 4.3325 3.25512 4.4525L1.75512 7.0475C1.65762 7.2125 1.70262 7.415 1.84512 7.5275L3.42762 8.765C3.39762 9.005 3.37512 9.2525 3.37512 9.5C3.37512 9.7475 3.39762 9.995 3.42762 10.235L1.84512 11.4725C1.70262 11.585 1.66512 11.7875 1.75512 11.9525L3.25512 14.5475C3.32262 14.6675 3.45012 14.735 3.58512 14.735C3.63012 14.735 3.67512 14.7275 3.71262 14.7125L5.58012 13.9625C5.97012 14.2625 6.39012 14.51 6.84762 14.6975L7.13262 16.685C7.15512 16.865 7.31262 17 7.50012 17H10.5001C10.6876 17 10.8451 16.865 10.8676 16.685L11.1526 14.6975C11.6101 14.51 12.0301 14.255 12.4201 13.9625L14.2876 14.7125C14.3326 14.7275 14.3776 14.735 14.4226 14.735C14.5501 14.735 14.6776 14.6675 14.7451 14.5475L16.2451 11.9525C16.3351 11.7875 16.2976 11.585 16.1551 11.4725L14.5726 10.235ZM13.0876 8.9525C13.1176 9.185 13.1251 9.3425 13.1251 9.5C13.1251 9.6575 13.1101 9.8225 13.0876 10.0475L12.9826 10.895L13.6501 11.42L14.4601 12.05L13.9351 12.9575L12.9826 12.575L12.2026 12.26L11.5276 12.77C11.2051 13.01 10.8976 13.19 10.5901 13.3175L9.79512 13.64L9.67512 14.4875L9.52512 15.5H8.47512L8.21262 13.64L7.41762 13.3175C7.09512 13.1825 6.79512 13.01 6.49512 12.785L5.81262 12.26L5.01762 12.5825L4.06512 12.965L3.54012 12.0575L4.35012 11.4275L5.01762 10.9025L4.91262 10.055C4.89012 9.8225 4.87512 9.65 4.87512 9.5C4.87512 9.35 4.89012 9.1775 4.91262 8.9525L5.01762 8.105L4.35012 7.58L3.54012 6.95L4.06512 6.0425L5.01762 6.425L5.79762 6.74L6.47262 6.23C6.79512 5.99 7.10262 5.81 7.41012 5.6825L8.20512 5.36L8.32512 4.5125L8.47512 3.5H9.51762L9.78012 5.36L10.5751 5.6825C10.8976 5.8175 11.1976 5.99 11.4976 6.215L12.1801 6.74L12.9751 6.4175L13.9276 6.035L14.4526 6.9425L13.6501 7.58L12.9826 8.105L13.0876 8.9525ZM9.00012 6.5C7.34262 6.5 6.00012 7.8425 6.00012 9.5C6.00012 11.1575 7.34262 12.5 9.00012 12.5C10.6576 12.5 12.0001 11.1575 12.0001 9.5C12.0001 7.8425 10.6576 6.5 9.00012 6.5ZM9.00012 11C8.17512 11 7.50012 10.325 7.50012 9.5C7.50012 8.675 8.17512 8 9.00012 8C9.82512 8 10.5001 8.675 10.5001 9.5C10.5001 10.325 9.82512 11 9.00012 11Z" fill="#6C6C6C"/>
</svg>
