<svg width="20" height="20" viewBox="0 0 20 20" fill="none" xmlns="http://www.w3.org/2000/svg">
<path d="M18.3335 7.90749H14.3418L10.6918 2.44082C10.5335 2.20749 10.2668 2.09082 10.0002 2.09082C9.7335 2.09082 9.46683 2.20749 9.3085 2.44915L5.6585 7.90749H1.66683C1.2085 7.90749 0.833496 8.28249 0.833496 8.74082C0.833496 8.81582 0.841829 8.89082 0.866829 8.96582L2.9835 16.6908C3.17516 17.3908 3.81683 17.9075 4.5835 17.9075H15.4168C16.1835 17.9075 16.8252 17.3908 17.0252 16.6908L19.1418 8.96582L19.1668 8.74082C19.1668 8.28249 18.7918 7.90749 18.3335 7.90749ZM10.0002 4.40749L12.3335 7.90749H7.66683L10.0002 4.40749ZM15.4168 16.2408L4.59183 16.2492L2.7585 9.57415H17.2502L15.4168 16.2408ZM10.0002 11.2408C9.0835 11.2408 8.3335 11.9908 8.3335 12.9075C8.3335 13.8242 9.0835 14.5742 10.0002 14.5742C10.9168 14.5742 11.6668 13.8242 11.6668 12.9075C11.6668 11.9908 10.9168 11.2408 10.0002 11.2408Z" fill="#171717"/>
</svg>
