<svg width="149" height="149" viewBox="0 0 149 149" fill="none" xmlns="http://www.w3.org/2000/svg">
<path d="M74.5 123.98C80.8549 137.061 94.2691 149 109.789 149C131.445 149 149 131.445 149 109.789C149 94.2692 137.061 80.8549 123.98 74.5C137.061 68.1451 149 54.7309 149 39.2105C149 17.5551 131.445 -7.6736e-07 109.789 -1.71395e-06C94.2691 -2.39236e-06 80.8549 11.9388 74.5 25.0202C68.1451 11.9388 54.7308 -4.12064e-06 39.2105 -4.79905e-06C17.5552 -5.74564e-06 -7.67359e-07 17.5551 -1.71395e-06 39.2105C-2.39236e-06 54.7308 11.9388 68.1451 25.0201 74.5C11.9388 80.8549 -4.12064e-06 94.2692 -4.79905e-06 109.789C-5.74564e-06 131.445 17.5552 149 39.2105 149C54.7308 149 68.1451 137.061 74.5 123.98Z" fill="#EED274"/>
</svg>
