<svg width="116" height="116" viewBox="0 0 116 116" fill="none" xmlns="http://www.w3.org/2000/svg">
<path d="M37.6051 2.04491C18.101 5.49511 5.84923 11.7618 1.6245 20.4225C-0.206217 24.2952 -0.558277 34.4345 0.920378 41.687C3.52563 54.3612 10.3556 70.0631 18.8755 82.9485C25.8463 93.5807 38.6613 106.748 46.4066 111.325C49.364 113.085 53.3849 115.025 58.0325 115.025C62.5632 115.197 65.9812 113.085 68.9385 111.325C76.1206 107.1 89.6397 93.2991 96.0472 83.6526C104.708 70.6264 111.82 54.2908 114.425 41.687C115.833 34.5049 115.551 24.2952 113.721 20.5633C109.496 11.6914 97.2442 5.4247 77.4584 2.04491C68.9385 0.636673 45.7729 0.566261 37.6051 2.04491Z" fill="#EED274"/>
</svg>
