<svg width="103" height="128" viewBox="0 0 103 128" fill="none" xmlns="http://www.w3.org/2000/svg">
<path d="M90.5889 85.9079C91.9116 78.2941 93.4977 70.7506 95.4084 63.2896C96.8555 57.6372 98.4512 52.0365 100.271 46.5194C100.692 45.2433 101.361 43.3158 102.071 41.2969C103.83 36.297 102.046 30.6272 97.8714 27.9515L58.04 2.42045C53.8545 -0.262387 48.5251 0.870744 45.5091 5.084C45.4923 5.10725 45.4755 5.13051 45.4597 5.15349C42.5194 9.25736 39.421 13.2119 36.2303 17.0759C29.9788 24.6472 23.3546 31.792 16.325 38.4677C13.0082 41.6175 10.1401 45.212 7.7674 49.2714C6.73875 51.031 5.86755 52.9081 4.97928 54.7638C3.83936 57.1456 2.971 59.6605 2.28782 62.2426C-1.15893 75.265 -0.175202 87.8691 5.2471 99.9911C8.76453 107.856 13.9027 114.178 20.4468 119.074C22.247 120.42 24.146 121.597 26.1116 122.64C28.5353 123.927 31.0276 125.011 33.6264 125.753C47.3242 129.665 60.0696 127.199 71.7934 118.373C77.371 114.175 81.7716 108.702 85.1472 102.23C86.0223 100.552 86.7644 98.7831 87.4958 97.0197C88.9671 93.4703 89.9251 89.7332 90.5895 85.9082L90.5889 85.9079Z" fill="#EED274"/>
</svg>
