<svg width="166" height="174" viewBox="0 0 166 174" fill="none" xmlns="http://www.w3.org/2000/svg">
<path d="M90.9714 3.3632L103.79 11.05C105.931 12.334 108.336 13.1154 110.823 13.3352L125.711 14.6509C131.411 15.1546 136.369 18.7571 138.609 24.0219L144.462 37.7751C145.439 40.0725 146.925 42.1182 148.808 43.7579L160.08 53.5735C164.395 57.331 166.289 63.16 165.007 68.7361L161.657 83.3024C161.098 85.7357 161.098 88.2643 161.657 90.6976L165.007 105.264C166.289 110.84 164.395 116.669 160.08 120.426L148.808 130.242C146.925 131.882 145.439 133.927 144.462 136.225L138.609 149.978C136.369 155.243 131.411 158.845 125.711 159.349L110.823 160.665C108.336 160.885 105.931 161.666 103.79 162.95L90.9714 170.637C86.0645 173.579 79.9355 173.579 75.0286 170.637L62.2102 162.95C60.0689 161.666 57.6641 160.885 55.177 160.665L40.2885 159.349C34.5891 158.845 29.6307 155.243 27.3905 149.978L21.5384 136.225C20.5608 133.927 19.0745 131.882 17.1916 130.242L5.91999 120.426C1.60514 116.669 -0.28881 110.84 0.993377 105.264L4.34281 90.6976C4.90234 88.2643 4.90234 85.7357 4.34281 83.3024L0.993378 68.7361C-0.288808 63.16 1.60513 57.331 5.91999 53.5735L17.1916 43.7579C19.0745 42.1182 20.5608 40.0725 21.5384 37.7751L27.3905 24.0219C29.6307 18.7571 34.5891 15.1546 40.2885 14.6509L55.177 13.3352C57.6641 13.1154 60.0689 12.334 62.2102 11.05L75.0286 3.36321C79.9355 0.420669 86.0645 0.420666 90.9714 3.3632Z" stroke="#BDBDBD"/>
</svg>
