<svg width="151" height="157" viewBox="0 0 151 157" fill="none" xmlns="http://www.w3.org/2000/svg">
<path d="M90.4837 151.391C81.6634 158.225 69.3366 158.225 60.5163 151.391C56.0234 147.91 50.4587 146.102 44.7779 146.277C33.6252 146.621 23.6527 139.376 20.5337 128.663C18.9449 123.206 15.5058 118.472 10.8068 115.275C1.58184 108.998 -2.22733 97.2746 1.54636 86.7742C3.4686 81.4255 3.46861 75.5745 1.54636 70.2258C-2.22733 59.7254 1.58184 48.002 10.8068 41.7251C15.5058 38.5278 18.945 33.7942 20.5337 28.3372C23.6527 17.6241 33.6252 10.3786 44.7779 10.7228C50.4587 10.8981 56.0234 9.09003 60.5163 5.60906C69.3366 -1.22475 81.6634 -1.22475 90.4837 5.60906C94.9766 9.09004 100.541 10.8981 106.222 10.7228C117.375 10.3786 127.347 17.6241 130.466 28.3372C132.055 33.7942 135.494 38.5278 140.193 41.7251C149.418 48.002 153.227 59.7254 149.454 70.2258C147.531 75.5745 147.531 81.4255 149.454 86.7742C153.227 97.2746 149.418 108.998 140.193 115.275C135.494 118.472 132.055 123.206 130.466 128.663C127.347 139.376 117.375 146.621 106.222 146.277C100.541 146.102 94.9766 147.91 90.4837 151.391Z" fill="#EED274"/>
</svg>
