<svg width="180" height="180" viewBox="0 0 180 180" fill="none" xmlns="http://www.w3.org/2000/svg">
<path d="M81.7714 4.9344C86.8367 1.89694 93.1633 1.89694 98.2286 4.93439L111.319 12.7842C113.395 14.0294 115.727 14.7871 118.139 15.0002L133.343 16.3438C139.226 16.8638 144.345 20.5825 146.657 26.0171L152.634 40.062C153.582 42.2899 155.023 44.2735 156.849 45.8635L168.359 55.8874C172.813 59.7662 174.769 65.7831 173.445 71.5391L170.024 86.4145C169.482 88.774 169.482 91.226 170.024 93.5855L173.445 108.461C174.769 114.217 172.813 120.234 168.359 124.113L156.849 134.136C155.023 135.726 153.582 137.71 152.634 139.938L146.657 153.983C144.345 159.418 139.227 163.136 133.343 163.656L118.139 165C115.727 165.213 113.395 165.971 111.319 167.216L98.2286 175.066C93.1633 178.103 86.8367 178.103 81.7714 175.066L68.6811 167.216C66.6047 165.971 64.2728 165.213 61.861 165L46.6567 163.656C40.7735 163.136 35.6551 159.418 33.3426 153.983L27.3664 139.938C26.4184 137.71 24.9772 135.726 23.1513 134.136L11.6406 124.113C7.18653 120.234 5.23149 114.217 6.55504 108.461L9.97553 93.5855C10.5181 91.226 10.5181 88.774 9.97553 86.4145L6.55504 71.5391C5.23149 65.7832 7.18653 59.7662 11.6406 55.8875L23.1513 45.8636C24.9772 44.2735 26.4184 42.2899 27.3664 40.062L33.3426 26.0171C35.6551 20.5825 40.7735 16.8638 46.6567 16.3438L61.861 15.0002C64.2728 14.7871 66.6047 14.0294 68.6811 12.7842L81.7714 4.9344Z" fill="#EED274"/>
</svg>
