<svg width="57" height="56" viewBox="0 0 57 56" fill="none" xmlns="http://www.w3.org/2000/svg">
<circle cx="28.5" cy="28" r="28" fill="#23A26D" fill-opacity="0.12"/>
<path d="M27.9974 14.6667C20.6507 14.6667 14.6641 20.6533 14.6641 28C14.6641 35.3467 20.6507 41.3333 27.9974 41.3333C35.3441 41.3333 41.3307 35.3467 41.3307 28C41.3307 20.6533 35.3441 14.6667 27.9974 14.6667ZM34.3707 24.9333L26.8107 32.4933C26.6241 32.68 26.3707 32.7867 26.1041 32.7867C25.8374 32.7867 25.5841 32.68 25.3974 32.4933L21.6241 28.72C21.2374 28.3333 21.2374 27.6933 21.6241 27.3067C22.0107 26.92 22.6507 26.92 23.0374 27.3067L26.1041 30.3733L32.9574 23.52C33.3441 23.1333 33.9841 23.1333 34.3707 23.52C34.7574 23.9067 34.7574 24.5333 34.3707 24.9333Z" fill="#23A26D"/>
</svg>
