<svg width="18" height="18" viewBox="0 0 18 18" fill="none" xmlns="http://www.w3.org/2000/svg">
<path d="M15.75 6.74854H11.0175L11.73 3.32104L11.7525 3.08104C11.7525 2.77354 11.625 2.48854 11.4225 2.28604L10.6275 1.49854L5.6925 6.44104C5.415 6.71104 5.25 7.08604 5.25 7.49854V14.9985C5.25 15.8235 5.925 16.4985 6.75 16.4985H13.5C14.1225 16.4985 14.655 16.1235 14.88 15.5835L17.145 10.296C17.2125 10.1235 17.25 9.94353 17.25 9.74854V8.24854C17.25 7.42354 16.575 6.74854 15.75 6.74854ZM15.75 9.74854L13.5 14.9985H6.75V7.49854L10.005 4.24354L9.1725 8.24854H15.75V9.74854ZM0.75 7.49854H3.75V16.4985H0.75V7.49854Z" fill="#6C6C6C"/>
</svg>
