<svg width="32" height="32" viewBox="0 0 32 32" fill="none" xmlns="http://www.w3.org/2000/svg">
<path d="M30.6668 3.99974C29.39 4.90037 27.9763 5.58922 26.4802 6.03974C25.6772 5.11642 24.6099 4.46199 23.4229 4.16497C22.2358 3.86795 20.9862 3.94266 19.8429 4.37901C18.6997 4.81535 17.7181 5.59227 17.0308 6.60469C16.3435 7.61711 15.9838 8.81618 16.0002 10.0397V11.3731C13.657 11.4338 11.3352 10.9142 9.24151 9.86033C7.14782 8.80651 5.34725 7.25125 4.00016 5.33307C4.00016 5.33307 -1.33317 17.3331 10.6668 22.6664C7.92087 24.5304 4.64971 25.465 1.3335 25.3331C13.3335 31.9997 28.0002 25.3331 28.0002 9.99974C27.9989 9.62834 27.9632 9.25786 27.8935 8.89307C29.2543 7.55106 30.2146 5.85669 30.6668 3.99974Z" stroke="white" stroke-width="1.33333" stroke-linecap="round" stroke-linejoin="round"/>
</svg>
