<svg width="43" height="51" viewBox="0 0 43 51" fill="none" xmlns="http://www.w3.org/2000/svg">
<path d="M38.0031 13.7693C37.3596 11.4616 36.5517 7.44413 36.3111 5.48181C36.0291 3.41509 35.4681 2.38294 34.5827 1.72522C34.3526 1.5587 34.2756 1.50965 34.1059 1.45924C33.8839 1.39326 33.4908 1.32922 32.6504 1.28469C30.9796 1.19616 27.8736 1.19575 21.5995 1.19575C15.5625 1.19575 12.4438 1.20432 10.7004 1.29301C9.82658 1.33747 9.36133 1.39984 9.07168 1.47144C8.82547 1.5323 8.69845 1.60018 8.49619 1.72903L8.49623 1.72909L8.48626 1.73528C7.71566 2.21358 7.01013 3.4308 6.68779 5.74854C6.21032 9.47943 4.29615 17.0668 2.80976 21.0716C2.09664 23.0533 1.70668 24.2745 1.48592 25.4791C1.26593 26.6796 1.20703 27.9025 1.20703 29.8941C1.20703 32.0678 1.28345 33.3833 1.57197 34.6241C1.86031 35.8642 2.37283 37.0826 3.3313 39.0411C4.28231 40.9187 4.86531 41.7723 6.54229 43.7156C6.82874 44.0243 7.3766 44.5154 7.90659 44.9404C8.17135 45.1527 8.41189 45.3325 8.5937 45.4542C8.65097 45.4926 8.69579 45.5207 8.72884 45.5403C9.05307 45.6036 9.28982 45.7832 9.41334 45.893C9.56662 46.0292 9.69857 46.194 9.79891 46.3672C9.80644 46.3733 9.81525 46.3804 9.82543 46.3883C9.92234 46.4639 10.0775 46.5694 10.294 46.7015C10.7227 46.9631 11.3163 47.2835 11.9886 47.6174C13.3374 48.2874 14.9146 48.9684 15.9777 49.3085C16.9842 49.6196 19.1815 49.8044 21.5122 49.8044C23.844 49.8044 26.0296 49.6194 27.0173 49.3099C32.8537 47.409 36.733 44.3415 39.526 39.3898L39.5271 39.3878C40.4294 37.7969 40.9831 36.5152 41.3204 35.0958C41.6603 33.6657 41.7924 32.0462 41.7924 29.7627C41.7924 27.6823 41.7649 26.6234 41.5603 25.5423C41.3534 24.4488 40.9602 23.304 40.1547 21.0671L40.1524 21.0606C39.6065 19.5106 39.231 18.1932 38.0031 13.7693ZM38.0031 13.7693C38.0031 13.7693 38.0031 13.7694 38.0031 13.7695L38.9664 13.5009L38.0028 13.7683C38.0029 13.7686 38.003 13.7689 38.0031 13.7693Z" stroke="black" stroke-width="2"/>
</svg>
