<svg width="32" height="32" viewBox="0 0 32 32" fill="none" xmlns="http://www.w3.org/2000/svg">
<path d="M30.0533 8.5587C29.8949 7.92591 29.5723 7.34613 29.1182 6.87791C28.664 6.40969 28.0943 6.06961 27.4666 5.89203C25.1733 5.33203 15.9999 5.33203 15.9999 5.33203C15.9999 5.33203 6.82662 5.33203 4.53328 5.94536C3.90561 6.12294 3.33592 6.46302 2.88174 6.93124C2.42757 7.39946 2.105 7.97924 1.94662 8.61203C1.5269 10.9394 1.3216 13.3004 1.33328 15.6654C1.31832 18.0481 1.52364 20.4271 1.94662 22.772C2.12123 23.3852 2.45102 23.9429 2.90414 24.3913C3.35726 24.8398 3.91838 25.1638 4.53328 25.332C6.82662 25.9454 15.9999 25.9454 15.9999 25.9454C15.9999 25.9454 25.1733 25.9454 27.4666 25.332C28.0943 25.1545 28.664 24.8144 29.1182 24.3462C29.5723 23.8779 29.8949 23.2982 30.0533 22.6654C30.4698 20.3555 30.6751 18.0125 30.6666 15.6654C30.6816 13.2826 30.4763 10.9036 30.0533 8.5587Z" stroke="white" stroke-width="1.33333" stroke-linecap="round" stroke-linejoin="round"/>
<path d="M12.9999 20.0254L20.6666 15.6654L12.9999 11.3054V20.0254Z" stroke="white" stroke-width="1.33333" stroke-linecap="round" stroke-linejoin="round"/>
</svg>
